<svg id="Capa_1" enable-background="new 0 0 511.9 511.9" height="512" viewBox="0 0 511.9 511.9" width="512" xmlns="http://www.w3.org/2000/svg"><g><path d="m126.67 328.658-24.749-24.749c-2.678-2.678-6.64-3.611-10.233-2.416l-63.64 21.21c-2.907.97-5.325 3.322-6.325 6.325l-21.21 63.64c-1.198 3.594-.263 7.555 2.416 10.233l106.07 106.07c2.689 2.688 6.652 3.608 10.233 2.416l63.64-21.21c3.024-1.012 5.361-3.428 6.325-6.325l21.21-63.64c1.198-3.594.263-7.555-2.416-10.233l-24.749-24.749 72.708-72.707 72.707 72.707-24.749 24.749c-2.678 2.679-3.613 6.641-2.415 10.234l21.22 63.64c.964 2.897 3.312 5.323 6.325 6.324l63.64 21.21c3.594 1.196 7.554.263 10.233-2.417l21.211-21.213c3.905-3.905 3.905-10.236 0-14.142-3.905-3.904-10.237-3.905-14.142.001l-16.841 16.842-42.427-14.14 30.981-30.988c3.905-3.906 3.904-10.237-.001-14.143-3.905-3.904-10.237-3.903-14.142.002l-30.98 30.987-14.146-42.427c10.846-10.846 85.155-85.155 97.329-97.329l42.426 14.14-30.988 30.987c-3.905 3.905-3.906 10.237 0 14.143 3.906 3.905 10.237 3.905 14.142 0l30.989-30.988 14.14 42.426-16.843 16.846c-3.905 3.905-3.905 10.236 0 14.142s10.238 3.905 14.142-.001l21.212-21.215c2.678-2.678 3.613-6.639 2.416-10.232l-21.21-63.64c-.945-2.842-3.264-5.304-6.325-6.325l-63.64-21.21c-3.593-1.195-7.555-.261-10.233 2.416l-24.749 24.749-72.707-72.708 72.708-72.708 24.749 24.749c2.691 2.692 6.66 3.607 10.234 2.415l63.64-21.22c3.001-1.004 5.35-3.401 6.324-6.324l21.21-63.64c1.198-3.594.263-7.555-2.416-10.233l-106.063-106.06c-2.679-2.678-6.64-3.612-10.233-2.416l-63.64 21.21c-2.936.983-5.335 3.35-6.325 6.324l-21.22 63.641c-1.198 3.594-.263 7.556 2.416 10.234l24.748 24.748-72.707 72.708-72.708-72.708 24.748-24.748c2.678-2.679 3.614-6.64 2.416-10.233l-21.21-63.641c-.972-2.908-3.319-5.323-6.325-6.325l-63.64-21.21c-3.594-1.196-7.554-.261-10.232 2.416l-106.07 106.06c-2.678 2.678-3.614 6.64-2.416 10.233l21.21 63.64c.987 2.965 3.38 5.344 6.324 6.324l63.64 21.22c3.586 1.196 7.55.268 10.234-2.415l24.749-24.749 72.708 72.708zm48.669 133.52-30.989-30.988c-3.905-3.904-10.237-3.904-14.142 0-3.905 3.905-3.905 10.237 0 14.143l30.988 30.987-42.426 14.14-97.33-97.33 14.14-42.426 30.989 30.988c3.906 3.905 10.237 3.904 14.142 0 3.905-3.905 3.905-10.237 0-14.143l-30.988-30.987 42.426-14.14 97.33 97.33zm-6.239-91.09-28.287-28.287 72.707-72.708 28.288 28.288zm167.469-321.365 30.98 30.988c3.904 3.905 10.235 3.906 14.142.002 3.906-3.905 3.906-10.236.001-14.143l-30.981-30.989 42.428-14.14 97.32 97.32-14.14 42.427-30.988-30.981c-3.905-3.904-10.236-3.903-14.142.002-3.905 3.906-3.904 10.237.001 14.143l30.987 30.979-42.426 14.147c-12.049-12.049-87.772-87.772-97.328-97.328zm6.231 91.09 28.288 28.288-72.708 72.707-28.287-28.287zm-250.65 48.666-42.426-14.147 30.987-30.979c3.906-3.905 3.906-10.236.001-14.143-3.904-3.905-10.236-3.905-14.142-.002l-30.988 30.981-14.14-42.427 97.33-97.321 42.426 14.14-30.988 30.989c-3.905 3.905-3.905 10.237 0 14.143 3.906 3.905 10.237 3.904 14.142 0l30.988-30.989 14.14 42.426c-11.907 11.906-88.063 88.062-97.33 97.329zm76.95-48.666 201.987 201.988-28.287 28.287c-6.109-6.109-200.251-200.251-201.988-201.988z"/><circle cx="448.871" cy="448.868" r="10"/></g></svg>