<?xml version="1.0" encoding="utf-8"?>
<!-- Generator: Adobe Illustrator 21.0.0, SVG Export Plug-In . SVG Version: 6.00 Build 0)  -->
<svg version="1.1" id="Layer_1" xmlns="http://www.w3.org/2000/svg" xmlns:xlink="http://www.w3.org/1999/xlink" x="0px" y="0px"
	 width="1400px" height="980px" viewBox="0 0 1400 980" enable-background="new 0 0 1400 980" xml:space="preserve">
<g>
	<rect y="622.9" fill="#619B91" width="1400" height="357.1"/>
	<rect y="0" fill="#27AAE1" width="1400" height="622.9"/>
	<rect y="0.1" fill="#A3C1C9" width="1400" height="296.5"/>
	<g>
		<g>
			<polygon fill="#D4EFE9" points="1180.9,521.7 219.1,521.7 304.3,432.4 1092.6,432.4 			"/>
		</g>
		<path opacity="0.15" fill="#231F20" d="M1114.3,476.2c-0.8-12.2-20.8-21.6-30.7-26.8c-22.9-11.5-37-9.7-59.3,0
			c-7.7,3.2-15.1,5.2-22.5,6.3c-15,2.2-29.8,0.6-46-2.3c-7.5-1.5-115.5-15.5-139.7-10.3c-6.6,1.4-137,4.9-177.7,6.1
			c-0.8-1.2-234.1-6.1-255.1-5.8c-25.1,0.6,5.8,40.3-5.8,38.5c26.6,12.5,71.5,6.7,96.2,7.1c52.3,0.9,100.7-8.5,152-11.7
			c12.5-0.9,36.3,0.3,36.1,0.2c-0.3-0.2,158,7.8,150.2,7.5c21.8,4.4,42.8,10.2,64.8,11.6c47.2,2.8,90.7-3.8,135.9-5.1
			c4.4-0.1,8.7,0,12.9,0.4c19.8,1.5,37.7-1,58.4,1C1095.9,494.1,1116,493.4,1114.3,476.2z"/>
		<path fill="#DBC1A9" d="M903.8,281.9c0.2,11.4-0.1,27.7,1.3,56.2c0.3,6.5-1.3,23.8-0.7,34.8c0.3,5.6,0.7,11.4,1.3,17.3
			c2.4,27.9,4.2,29.3,5.2,37.9c1.4,11.5,1.2,15.9,1.8,25.1c0.7,9.3,1.2,16.1,7.8,19.5c6.5,3.4,13.2,0.2,24.5-0.1
			c11.4-0.3,35.3-0.7,35.3-0.7s7.5-0.5,11.4-0.6c3.8-0.1,6-2.7,6-2.7s-3.2-4.9-7-4.8c-3.8,0.1-5.8-1.6-5.8-1.6s-0.7-1.7-4.1-1.6
			c-3.4,0.1-8-0.5-8-0.5s-3.4-0.6-7.6-0.5c-4.1,0.1-7.5-0.5-7.5-0.5s-1.9-1.7-9.9-1.5c-7.9,0.2-8,1.1-11.5-1c-3.5-2-4.1-12-3.9-19.2
			c0.2-7.2,1-26.1,3.7-37.9c2.7-11.8,3.5-22.6,2-35.7c-1.5-13.2-2-17.1-0.7-25.7c1.3-8.6,4.3-25.4,5.3-31.6
			c1.1-6.1,2.5-19.9,5.6-27.4c5.1-12.3,7-31.5,7-31.5c0.9-14.9-7-22.4-11.5-24.6c-25-11.9-29.9,2.3-36.2,10.2
			C896.7,246.8,903.8,281.9,903.8,281.9z"/>
		<path fill="#EBD6C0" d="M1088.9,198.4c-4.1-9.5-8.4-14.5-11-17.4c-2.6-3-2.1-6.5-5.3-9.4c-3.2-2.9-7.1-4.5-10.2-6.2
			c-3.1-1.7-4.2-1.3-8-1.8c-3.8-0.4-9-2-16.3-0.5c-56.2,11.2-56.1,26.3-51.5,29c4.7,2.6,7.1,4.2,7.1,4.2s-1.7,2.4-9.2,5
			c-7.6,2.5-11,2.8-11,2.8s-15.3-13.4-44.7-12.1c-29.4,1.4-44.9,3-67.9,19.5c-23.2,16.4-28.6,24.8-43.6,31.1
			c-15,6.2-34.6,4.8-50.3,1c-18.9-4.7-47.9,9.6-64.8,19.4l21.9,83.1c1-0.5,1.9-1,2.9-1.5c8.5-4.5,22.9-10.8,30-14.3
			c7.3-3.3,10.8-3.5,22.8-4.5c12-1,26-4.2,26-4.2s15.9-4,23.9-7.1c8-3,16.4-8.7,25.8-9.9c9.4-1.2,14.3-4.1,19-7.5
			c4.5-3.4,10.2,0,10.2,0s1.6,1.1,11.4,2.7c9.9,1.5,24.6,17.9,46.3,2.2c10.4-7.5,33-37.2,35.8-55.8c0,0,7.8,1.5,13.7,2.1
			c5.7,0.7,10.2,0.5,10.2,0.5s1.9,4.7,3.8,11.6c1.8,7,8.1,9.1,11.3,7.3c3.4-1.9,2.9-3.7,5.7-2.8c2.8,0.8,4.6,1.9,5.5,1
			c1-1,1.3-2.2,1.3-2.2s2.1,0.9,3.6,0.1c1.5-0.8,4.1-3.3,4.1-3.3s4.1,6.2,7.5,3c3.4-3.3,6.8-10.8,8.5-13.1c1.7-2.4,6-8.2,13.6-11.6
			c2.4-1.1,8.8-1.8,15.2-8c3.3-3.2,5.3-6.9,5.3-6.9C1091.9,215.9,1093.1,207.8,1088.9,198.4z"/>
		<g>
			<path fill="#F2F2F2" d="M379.3,466.6c-22.3,6.5-37.9-15.9-40.3-26.8c-2.8-12.3-2.3-8.2-5.1-29.6c-1.4-10.7-5.7-11.8-6.5-22.6
				c0-4.3-0.2-12.1,1.4-16.4c2.9-7.5,11.7-8.3,21.1-8.9c-1.3,0.4-2.7,1.1-4.2,2.1c-17.6,13,4.2,51.9,9.4,65.4
				c4.3,9.9,4.9,21.7,10.6,30.7C367.3,463.3,375.3,466.3,379.3,466.6z"/>
			<path fill="#DBC1A9" d="M681.9,275.4c0,0-15.7,11.1-36.5,18.4c-20.9,7.3-23.9,10.9-38,17c-14.2,6.1-25.6,15.7-52.9,16.7
				c-27.4,1-39.6-3.9-60.8,1.8c-21.2,5.7-38.6,16.2-60.7,22.5c-22.1,6.4-28.8,6.4-35.2,7.1c-4.8,0.4-25.4,2.4-26.4,2.5l12.5,36.6
				c5.9-3.2,23.7-7.4,34.2-9.8c13.2-3,28.4-5.4,53.3-6.3c25.1-0.9,35.6-3.2,47.4-6.1c11.9-2.9,15.5-4.1,25.1-4.4
				c9.6-0.4,21,2.7,32.6,1.5c11.6-1.3,14.2-4.2,27.9-4.9c13.7-0.6,18.2-2,26.5-2.5c8.2-0.5,18.9-0.1,38.3-4.6
				c19.4-4.5,31-8.1,31-8.1s6-1.6,13.4-4.7l-18.1-80C687.3,272.2,681.9,275.4,681.9,275.4z"/>
			<path fill="#E6E7E8" d="M383.1,359.5c0,0,12.9,0.4,20.5-1.2c0,0-1.3,22.1,3.5,32.5c0,0-20,3.7-33,12.3
				C361,411.6,383.1,359.5,383.1,359.5z"/>
			<path fill="#E26E0E" d="M371.6,359.9c-5.6,0.4-22,2.8-22,2.8s-5-0.6-10.2,2.5c-5.2,3-5.3,11.1-4.4,22.4c1,11.2,4.2,14,6.3,17.2
				c2.1,3.3,0.5,8.1,0.8,12.7c0.3,4.4,0.4,17.2,5.5,26.1c5,9,13.7,18.9,23.5,22.2c9.9,3.4,14.3-1,17.2-4.1c2.9-3.1,2.8-5.4,2.8-5.4
				s-12.4-46.4-3.2-58.1c0.9-1.1-0.9-6.6-4-12.7c-4.7-9.4-2.9-14.2,3.6-24.8C390,356.7,374.2,359.7,371.6,359.9z"/>
		</g>
		<g>
			<path fill="#F2F2F2" d="M395.3,486.5c-22.3,6.6-38.2-17-40.8-28.4c-2.9-12.8-2.4-8.6-5.5-30.9c-1.5-11.2-5.9-12.4-6.8-23.7
				c-0.1-4.5-0.3-12.7,1.2-17.1c2.8-7.8,11.6-8.5,21.1-9.1c-1.3,0.4-2.7,1.1-4.2,2.2c-17.5,13.4,4.8,54.2,10.2,68.3
				c4.4,10.4,5.1,22.7,10.9,32.2C383.2,482.9,391.3,486.2,395.3,486.5z"/>
			<path fill="#EBD6C0" d="M688.8,271.4c0,0-15.1,12.3-35.6,21c-20.5,8.7-23.3,12.5-37.1,19.6c-13.9,7.1-24.8,17.6-52.1,19.9
				c-27.3,2.3-39.8-2.3-60.7,4.6c-20.9,6.9-37.8,18.8-59.5,26.3c-21.7,7.7-28.5,8-34.8,9.1c-4.8,0.7-25.2,3.7-26.2,3.8l14.2,37.8
				c5.7-3.6,23.4-8.8,33.7-11.9c13-3.7,28.1-7,53-9c25-2.1,35.5-5,47.1-8.6c11.7-3.6,15.2-5,24.8-5.8c9.6-0.9,21.1,1.9,32.7,0.1
				c11.6-1.9,14-5.1,27.6-6.4c13.6-1.2,18.1-2.9,26.4-3.8c8.1-0.9,18.9-1,38.1-6.6c19.2-5.6,30.6-10,30.6-10s5.9-1.9,13.2-5.5
				L702.2,263C694.1,267.7,688.8,271.4,688.8,271.4z"/>
			<path fill="#FFFFFF" d="M394.3,373.2c0,0,12.9-0.2,20.4-2.2c0,0-0.3,23.2,5,33.9c0,0-19.8,4.8-32.4,14.4
				C374.6,428.9,394.3,373.2,394.3,373.2z"/>
			<path fill="#F88011" d="M382.8,374.1c-5.6,0.7-21.9,3.9-21.9,3.9s-5-0.4-10.1,3.1c-5.1,3.3-4.8,11.9-3.3,23.7
				c1.6,11.7,4.8,14.5,7.1,17.8c2.2,3.3,0.9,8.5,1.4,13.3c0.5,4.6,1.2,18,6.7,27.1c5.4,9.3,14.6,19.2,24.5,22.2
				c10.1,3.1,14.3-1.7,17-5c2.8-3.4,2.5-5.7,2.5-5.7s-14.6-48.1-5.9-60.8c0.8-1.2-1.2-6.9-4.6-13.1c-5.2-9.6-3.6-14.8,2.4-26.1
				C401.1,369.9,385.4,373.8,382.8,374.1z"/>
		</g>
		<path fill="#1B75BC" d="M682.4,266.6c0,0-1.6,4.4-1.8,7c-0.1,2.6,0,3.4,0,3.4s4.3-2.9,5.9-4.4c1.6-1.4,1.9-0.1,1.9-0.1
			s5.7,15.8,6.7,33.6c1,17.7,0.9,21.2,2.2,28.9c1.2,7.8,7.7,19.1,7.7,19.1s5.4-0.6,19.7-7.8c14.2-7.2,27.7-14,35.7-16.3
			c8-2.3,18.1-3.8,27.5-4.6c9.4-0.8,18.3-3,18.3-3s4.4-20.9,0.5-42.1c-3.9-21.3-9.9-34.4-9.9-34.4s-15.2-0.2-22.8-2.5
			c-7.6-2.1-21.1-5.6-32-4.2c-10.8,1.3-21.4,5.8-36.8,13.4c-15.5,7.6-20.5,10.2-20.5,10.2L682.4,266.6z"/>
		<path fill="#FFFFFF" d="M973.4,204.2c-14.8-24.3-84-10-98.2-3.1c-6.7,3.2-17.1,10.5-26.8,18.5c0,0,3.9,18.9,7.8,33.2
			c4.2,15.6,7.2,28.4,7.9,32.7c0.8,4.1,1.3,17.9,1.3,17.9s8.2-5,11.2-5.3c2.9-0.3,9,2.2,16.1,2.8c2.3,0.3,5.1,0.3,7.8,0.3
			c4.1,2.4,15.7,8.6,25.2,7.2c11.6-1.8,46.4-29.7,52.6-62.1C978.3,246.3,982.8,219.4,973.4,204.2z M972.9,246.3
			c-2.4,18.2-24.1,41.7-45.9,46.3c5.7-5.3,7.6-9.8,5.8-12.8c-6.2-10.3-12.8-5.4-27.4-22.2c-0.3-0.4-4.1-8.3-4.2-8.8
			c-3.4-12.9,7.6-34.7,27.1-37.9C961.9,205.4,975.7,225.3,972.9,246.3z"/>
		<path fill="#BB5E11" d="M1021.4,159.3c-7.7,1.1-15.2,3.6-21.7,7.3c-4.6,2.6-8.5,6-11.4,9.9c-0.1,0-0.1,0-0.1,0
			c-4.7,6.2-6.8,13.9-4.6,22.8c0,0.1,0.1,0.2,0.1,0.3c4.3,17.1,16.4,11.5,26,1.7c10.1-10.3,19.7-3.1,24.3,6.9
			c6,11.1,10.3,16.7,24,20c8.8,2.5,16.4,3.3,24.4,2.9c1.1,0,29.4-20.7-5.7-56.9C1058.2,154.9,1034,157.5,1021.4,159.3z"/>
		<g opacity="0.15">
			<path fill="#231F20" d="M393.3,478.8c0.7,0.2,1.4,0.3,2.1,0.3c-19.3,5.7-33.9-11.3-39.1-23.3c-9.6-6.1-15.9-16.8-17.3-23.4
				c-2.8-12.3-2.3-8.2-5.1-29.6c-1.4-10.6-5.6-11.8-6.5-22.2c-0.1,2.6-0.1,5.1,0,7c0.8,10.8,5.1,11.9,6.5,22.6
				c2.8,21.3,2.3,17.3,5.1,29.6c1.5,6.6,7.7,17.3,17.3,23.4c5.2,12,19.7,29,39.1,23.3c-0.6,0-1.3-0.2-2.1-0.3c5.9,0,8.9-3.5,11-6
				c2.8-3.4,2.5-5.7,2.5-5.7s-0.4-1.4-1.1-3.8c-0.4,0.6-0.8,1.3-1.4,2.1C402.1,475.3,399.2,478.7,393.3,478.8z"/>
			<path fill="#231F20" d="M686.4,265.2c-0.2,0.2-0.4,0.3-0.6,0.5c0.6-0.3,1.3-0.7,2-1.1C687.5,264.5,687.1,264.6,686.4,265.2z"/>
			<path fill="#231F20" d="M1082.5,223.7c-0.2,0-0.4,0-0.7,0c-6.3,5.9-12.5,6.6-14.8,7.6c-7.5,3.4-11.8,9.2-13.6,11.6
				c-1.8,2.3-5.1,9.8-8.5,13.1c-3.4,3.2-7.5-3-7.5-3s-2.6,2.5-4.1,3.3c-1.5,0.8-3.6-0.1-3.6-0.1s-0.3,1.2-1.3,2.2
				c-0.9,0.9-2.8-0.2-5.5-1c-2.8-0.8-2.3,0.9-5.7,2.8c-3.3,1.8-9.5-0.3-11.3-7.3c-1.8-6.8-3.8-11.6-3.8-11.6s-4.4,0.2-10.2-0.5
				c-5.8-0.6-13.7-2.1-13.7-2.1c0,0,0,0,0,0c-0.4,2.7-1.2,5.7-2.4,8.8c-0.1,0.2-0.1,0.3-0.2,0.5c0,0.1,0,0.1-0.1,0.2
				c-2.3,6.4-5.6,12.5-9.5,18.2c-7.9,12.5-17.8,23.9-23.7,28.1c-11,7.9-20.1,7.7-27.8,5.3c-5.9-1.6-11.3-4.5-14-6.1
				c-0.1,0-0.2-0.1-0.3-0.1c-2.7,0-5.5-0.1-7.8-0.3c-7.1-0.7-13.2-3.2-16.1-2.8c-3.1,0.3-11.6,5.4-11.6,5.4s0.1-0.4,0-1
				c-2.7,1-5.5,1.8-9.4,2.3c-9.4,1.2-17.8,6.9-25.8,9.9c-7.4,2.8-21.4,6.5-23.6,7c-0.1,0.6-0.2,0.9-0.2,0.9s-8.9,2.3-18.3,3
				c-9.4,0.8-19.4,2.2-27.5,4.6c-8,2.3-21.5,9.1-35.7,16.3c-14.3,7.3-19.7,7.8-19.7,7.8s-0.1-0.1-0.2-0.4
				c-5.2,1.8-13.6,4.6-24.4,7.7c-19.2,5.6-29.9,5.7-38.1,6.6c-8.2,0.9-12.7,2.6-26.4,3.8c-13.6,1.3-16.1,4.5-27.6,6.4
				c-11.6,1.8-23.1-1-32.7-0.1c-9.6,0.8-13.1,2.2-24.8,5.8c-11.6,3.6-22.1,6.5-47.1,8.6c-24.9,2.1-39.9,5.3-53,9
				c-3.2,0.9-7,2.1-11,3.3l0,0l0,0c-6.5,2-13.3,4.3-18.2,6.3c-0.2,0.1-0.4,0.2-0.6,0.3c0.2,1,0.2,1.7,0,2.1c-2.4,3.6-3,9.9-2.6,17.2
				c0.3-4.1,1.1-7.5,2.6-9.8c0.2-0.3,0.2-1.1,0-2.1c0.2-0.1,0.4-0.2,0.6-0.3c4.8-2,11.7-4.3,18.2-6.3l0,0l0,0c4-1.2,7.8-2.4,11-3.3
				c13-3.7,28.1-7,53-9c25-2.1,35.5-5,47.1-8.6c11.7-3.6,15.2-5,24.8-5.8c9.6-0.9,21.1,1.9,32.7,0.1c11.6-1.9,14-5.1,27.6-6.4
				c13.6-1.2,18.1-2.9,26.4-3.8c8.1-0.9,18.9-1,38.1-6.6c10.8-3.2,19.2-5.9,24.4-7.7c0.1,0.2,0.2,0.4,0.2,0.4s5.4-0.6,19.7-7.8
				c14.2-7.2,27.7-14,35.7-16.3c8-2.3,18.1-3.8,27.5-4.6c9.4-0.8,18.3-3,18.3-3s0.1-0.3,0.2-0.9c2.2-0.6,16.2-4.2,23.6-7
				c8-3,16.4-8.7,25.8-9.9c3.9-0.5,7.1-1.3,9.7-2.3c0,0.6,0,0.9,0,0.9s8.2-5,11.2-5.3c2.9-0.3,9,2.2,16.1,2.8c2.2,0.3,5,0.3,7.8,0.3
				c0.1,0,0.2,0.1,0.3,0.1c2.6,1.5,8,4.4,14,6.1c7.7,2.4,16.8,2.6,27.8-5.3c5.9-4.3,15.8-15.7,23.7-28.1c3.8-5.7,7.1-11.8,9.5-18.2
				c0-0.1,0-0.1,0.1-0.2c0.1-0.2,0.1-0.3,0.2-0.5c1.2-3.1,2-6.1,2.4-8.8c0,0,0,0,0,0c0,0,7.8,1.5,13.7,2.1
				c5.7,0.7,10.2,0.5,10.2,0.5s1.9,4.7,3.8,11.6c1.8,7,8.1,9.1,11.3,7.3c3.4-1.9,2.9-3.7,5.7-2.8c2.8,0.8,4.6,1.9,5.5,1
				c1-1,1.3-2.2,1.3-2.2s2.1,0.9,3.6,0.1c1.5-0.8,4.1-3.3,4.1-3.3s4.1,6.2,7.5,3c3.4-3.3,6.8-10.8,8.5-13.1c1.7-2.4,6-8.2,13.6-11.6
				c2.4-1.1,8.5-1.7,14.8-7.6c0.2,0,0.4,0,0.7,0c0.7,0,13.7-9.3,11.6-26.4C1092.4,217,1083.1,223.7,1082.5,223.7z"/>
		</g>
		<path opacity="0.15" fill="#231F20" d="M911.1,291.5c0.7,11.8,1,28.7,3.5,58.1c0.6,6.7-0.3,24.7,0.7,36.1
			c0.5,5.8,1.2,11.8,1.9,17.9c3.5,28.8,5.2,30.2,6.6,39.1c1.8,11.9,1.8,16.4,2.7,25.9c1,9.6,1.8,16.7,8.4,19.9
			c6.5,3.3,12.9-0.2,24-0.9c11.1-0.7,34.6-1.9,34.6-1.9s7.3-0.8,11.1-1c3.7-0.2,5.8-3,5.8-3s-3.4-5-7-4.7c-3.7,0.2-5.7-1.5-5.7-1.5
			s-0.8-1.8-4.1-1.6c-3.4,0.2-7.8-0.3-7.8-0.3s-3.4-0.5-7.5-0.2c-4,0.3-7.4-0.3-7.4-0.3s-2-1.7-9.7-1.2c-7.8,0.5-7.8,1.4-11.3-0.7
			c-3.5-1.9-4.5-12.3-4.6-19.7c0-7.5-0.1-27,2.2-39.4c2.1-12.4,2.5-23.5,0.6-37c-2-13.6-2.6-17.7-1.7-26.6c1-8.9,3.2-26.5,3.9-32.9
			c0.8-6.3,1.7-20.8,4.4-28.6c4.5-12.9,5.6-32.9,5.6-32.9c0.3-15.5-7.7-23-12.3-25.1c-25-11.5-29.2,3.4-35.1,11.9
			C902.7,255.3,911.1,291.5,911.1,291.5z"/>
		<path fill="#EBD6C0" d="M913.5,287.9c0.7,12.1,1,29.5,3.6,59.8c0.6,6.9-0.3,25.4,0.7,37.2c0.5,5.9,1.2,12.2,2,18.5
			c3.5,29.7,5.4,31.1,6.7,40.3c1.9,12.2,1.9,16.9,2.8,26.7c1.1,9.8,1.9,17.1,8.6,20.5c6.6,3.4,13.2-0.2,24.5-0.9
			c11.4-0.7,35.3-2,35.3-2s7.5-0.8,11.3-1.1c3.7-0.2,5.9-3.1,5.9-3.1s-3.4-5.1-7.2-4.9c-3.7,0.2-5.9-1.5-5.9-1.5s-0.8-1.8-4.2-1.6
			c-3.4,0.2-8-0.3-8-0.3s-3.5-0.5-7.7-0.3c-4.1,0.3-7.5-0.3-7.5-0.3s-2-1.7-9.9-1.2c-7.9,0.5-7.9,1.4-11.5-0.7
			c-3.6-2-4.6-12.6-4.7-20.3c0-7.7-0.1-27.8,2.2-40.6c2.2-12.7,2.5-24.2,0.5-38.1c-2-14-2.7-18.2-1.7-27.4c1-9.2,3.3-27.3,4-33.9
			c0.8-6.5,1.7-21.4,4.5-29.4c4.6-13.3,5.7-33.8,5.7-33.8c0.3-16-7.9-23.7-12.5-25.8c-25.5-11.8-29.7,3.5-35.8,12.2
			C905,250.7,913.5,287.9,913.5,287.9z"/>
	</g>
	<g>
		<path opacity="0.34" fill="#619B91" d="M1286,0.1c-6,61.1-25.5,117.8-86.3,170c-70,61.3-168,88.1-233.3,149.3
			C905.7,380.7,817,399.8,761,457.2c-39.7,39.1-65.9,87.2-82.9,138.4H517.8c13.9-34.8,20.8-70.4,19.3-104
			c-4.7-88.1,23.3-114.9,107.3-176.1c93.3-68.9,70-95.7,56-191.4c-4.6-43.4,1-84.9,16.8-124.1h192.6c4.1,24.5,10,49.4,10,70.5
			c-4.7,38.3,0,99.5,74.7,57.4c42-23,28-76.6,46.7-107.2c4-7.1,8.9-14,14.5-20.7H1286z"/>
		<path opacity="0.34" fill="#619B91" d="M488.8,0.1C439.9,115.9,247,164,247.5,296.6c0,2.5,0.1,5,0.2,7.5c4.7,30.6,28,53.6,14,84.2
			c-18.7,34.5-65.3,53.6-88.7,84.2c-19.9,24.6-28.8,49.3-30.7,74.2c-1.2,16.2,0.5,32.5,4,48.9H0v-7.7c12.5-18.9,26.4-37.5,37.4-57.8
			c9.4-17.4,16.6-36.1,19-57.6C60.1,441.9,42.9,359.7,0,365.5V201.9c7.1-5.6,15-11,23.7-16.4c74.7-49.8,168-42.1,242.7-84.2
			C308.8,79.1,328.9,42,340.5,0.1H488.8z"/>
		<g opacity="0.34">
			<path fill="#619B91" d="M1400,312.2v283.4H961.7c4.7-2.8,9.3-5.6,14-8.2c56-30.6,102.6-38.3,135.3-88.1
				c46.7-65.1,60.7-141.7,154-176.1C1298.9,313.2,1355,304.7,1400,312.2z"/>
		</g>
	</g>
	<rect y="0" opacity="0.63" fill="#E6F5E6" width="1400" height="622.9"/>
	<g>
		<rect y="597.5" fill="#DCB063" width="1400" height="25.4"/>
	</g>
	<g>
		<g>
			<polygon fill="#D4EFE9" points="1319.5,816.7 80.5,816.7 190.2,701.6 1205.8,701.6 			"/>
		</g>
		<path opacity="0.15" fill="#231F20" d="M1233.8,758.1c-1-15.7-26.7-27.8-39.6-34.5c-29.5-14.8-47.7-12.5-76.4,0.1
			c-9.9,4.1-19.5,6.7-28.9,8.1c-19.4,2.9-38.4,0.8-59.2-3c-9.7-1.9-148.9-19.9-180-13.2c-8.5,1.8-176.5,6.3-228.9,7.8
			c-1-1.6-301.7-7.9-328.7-7.4c-32.4,0.7,7.4,52-7.5,49.6c34.2,16.1,92.1,8.6,124,9.1c67.3,1.1,129.7-10.9,195.8-15.1
			c16.1-1.1,46.8,0.4,46.5,0.2c-0.4-0.3,203.6,10,193.5,9.7c28.1,5.6,55.1,13.2,83.4,14.9c60.8,3.6,116.8-4.9,175.1-6.5
			c5.7-0.1,11.2,0.1,16.6,0.5c25.5,1.9,48.5-1.3,75.2,1.3C1210.1,781.2,1236,780.3,1233.8,758.1z"/>
		<path fill="#DBC1A9" d="M962.6,507.8c0.3,14.7-0.2,35.7,1.7,72.4c0.4,8.4-1.7,30.6-0.9,44.9c0.4,7.2,1,14.7,1.6,22.3
			c3.1,35.9,5.3,37.8,6.7,48.9c1.8,14.8,1.6,20.4,2.3,32.4c0.9,11.9,1.6,20.8,10.1,25.1c8.4,4.3,16.9,0.3,31.6-0.1
			c14.6-0.4,45.5-0.9,45.5-0.9s9.7-0.7,14.6-0.8c4.8-0.1,7.7-3.4,7.7-3.4s-4.2-6.3-9-6.2c-4.8,0.1-7.5-2.1-7.5-2.1s-0.9-2.2-5.3-2.1
			c-4.4,0.1-10.3-0.7-10.3-0.7s-4.4-0.8-9.8-0.6c-5.3,0.1-9.7-0.7-9.7-0.7s-2.5-2.2-12.7-1.9c-10.2,0.3-10.3,1.4-14.8-1.3
			c-4.5-2.6-5.3-15.4-5.1-24.7c0.3-9.3,1.2-33.6,4.8-48.8c3.4-15.3,4.5-29.1,2.6-46c-1.9-17-2.6-22.1-0.9-33.1
			c1.7-11.1,5.6-32.8,6.8-40.7c1.4-7.8,3.2-25.7,7.2-35.3c6.6-15.9,9-40.6,9-40.6c1.1-19.2-9-28.9-14.9-31.7
			c-32.3-15.3-38.5,2.9-46.7,13.2C953.5,462.5,962.6,507.8,962.6,507.8z"/>
		<path fill="#EBD6C0" d="M1201,400.2c-5.3-12.3-10.8-18.7-14.2-22.4c-3.4-3.8-2.7-8.4-6.8-12.1c-4.1-3.7-9.2-5.8-13.1-8
			c-3.9-2.2-5.5-1.7-10.3-2.4c-4.9-0.5-11.6-2.5-21-0.7c-72.4,14.4-72.3,33.9-66.3,37.4c6.1,3.4,9.1,5.4,9.1,5.4s-2.2,3.1-11.9,6.4
			c-9.8,3.2-14.2,3.7-14.2,3.7s-19.7-17.3-57.6-15.6c-37.9,1.9-57.8,3.9-87.5,25.1c-29.8,21.2-36.9,32-56.2,40.1
			c-19.3,8-44.6,6.2-64.8,1.3c-24.4-6.1-61.8,12.4-83.5,25L731,590.5c1.2-0.6,2.5-1.2,3.8-1.9c11-5.8,29.4-13.9,38.7-18.4
			c9.4-4.3,14-4.5,29.4-5.9c15.5-1.4,33.5-5.4,33.5-5.4s20.5-5.2,30.8-9.2c10.3-3.8,21.1-11.2,33.3-12.7c12.1-1.6,18.5-5.3,24.5-9.6
			c5.8-4.4,13.2,0,13.2,0s2,1.4,14.7,3.5c12.8,2,31.7,23.1,59.7,2.8c13.4-9.7,42.6-47.9,46.1-71.9c0,0,10.1,2,17.6,2.7
			c7.4,0.9,13.1,0.6,13.1,0.6s2.5,6.1,4.8,14.9c2.4,9,10.4,11.7,14.6,9.4c4.3-2.5,3.8-4.7,7.3-3.7c3.5,1.1,6,2.4,7.1,1.3
			c1.3-1.3,1.7-2.8,1.7-2.8s2.7,1.2,4.6,0.1c1.9-1.1,5.3-4.3,5.3-4.3s5.3,7.9,9.7,3.9c4.4-4.2,8.7-13.9,11-16.9
			c2.2-3.1,7.8-10.6,17.5-15c3.1-1.4,11.3-2.3,19.6-10.3c4.2-4.1,6.8-8.9,6.8-8.9C1205,422.7,1206.4,412.3,1201,400.2z"/>
		<g>
			<path fill="#F2F2F2" d="M286.8,745.7c-28.7,8.4-48.8-20.5-52-34.5c-3.6-15.8-2.9-10.6-6.6-38.1c-1.8-13.8-7.4-15.2-8.4-29.2
				c-0.1-5.6-0.2-15.6,1.8-21.1c3.7-9.7,15-10.7,27.2-11.5c-1.7,0.5-3.5,1.4-5.4,2.7c-22.7,16.8,5.4,66.9,12.2,84.3
				c5.5,12.8,6.3,27.9,13.6,39.6C271.3,741.5,281.6,745.4,286.8,745.7z"/>
			<path fill="#DBC1A9" d="M676.7,499.4c0,0-20.2,14.3-47,23.7c-26.9,9.5-30.8,14.1-48.9,21.9c-18.3,7.9-32.9,20.2-68.2,21.5
				c-35.3,1.3-51-5-78.4,2.3c-27.3,7.3-49.7,20.9-78.2,28.9c-28.4,8.2-37.1,8.3-45.3,9.2c-6.2,0.6-32.7,3.1-34,3.2l16.1,47.2
				c7.6-4.1,30.6-9.5,44.1-12.7c17-3.8,36.5-7,68.7-8.1c32.3-1.2,45.9-4.1,61.1-7.9c15.3-3.7,19.9-5.2,32.3-5.7
				c12.4-0.6,27,3.5,42,2c15-1.7,18.3-5.4,36-6.3c17.6-0.7,23.5-2.6,34.1-3.2c10.5-0.6,24.4-0.2,49.4-6c25-5.8,40-10.5,40-10.5
				s7.7-2,17.3-6l-23.4-103.1C683.7,495.2,676.7,499.4,676.7,499.4z"/>
			<path fill="#E6E7E8" d="M291.7,607.8c0,0,16.6,0.5,26.4-1.5c0,0-1.7,28.5,4.5,41.8c0,0-25.7,4.8-42.5,15.8
				C263.2,674.9,291.7,607.8,291.7,607.8z"/>
			<path fill="#E26E0E" d="M276.9,608.2c-7.2,0.5-28.4,3.6-28.4,3.6s-6.5-0.7-13.2,3.2c-6.7,3.8-6.8,14.3-5.6,28.9
				c1.3,14.4,5.4,18,8.1,22.2c2.7,4.2,0.7,10.5,1,16.3c0.4,5.7,0.5,22.1,7.1,33.6c6.4,11.7,17.6,24.4,30.3,28.6
				c12.8,4.3,18.4-1.3,22.2-5.2c3.7-4,3.6-6.9,3.6-6.9s-16-59.8-4.1-74.9c1.1-1.5-1.2-8.5-5.1-16.3c-6.1-12.1-3.8-18.3,4.6-31.9
				C300.6,604.1,280.3,608,276.9,608.2z"/>
		</g>
		<g>
			<path fill="#F2F2F2" d="M307.5,771.4c-28.7,8.5-49.2-21.9-52.5-36.6c-3.8-16.5-3.1-11.1-7-39.8c-2-14.5-7.6-15.9-8.7-30.5
				c-0.1-5.8-0.4-16.3,1.6-22c3.6-10.1,14.9-11,27.2-11.7c-1.7,0.5-3.5,1.4-5.4,2.8c-22.6,17.2,6.2,69.8,13.2,88.1
				c5.7,13.4,6.6,29.2,14.1,41.5C291.9,766.8,302.3,771,307.5,771.4z"/>
			<path fill="#EBD6C0" d="M685.6,494.2c0,0-19.5,15.9-45.8,27c-26.4,11.2-30.1,16.2-47.9,25.2c-17.9,9.1-32,22.7-67.1,25.7
				c-35.2,3-51.2-2.9-78.2,6c-27,8.9-48.7,24.2-76.7,33.9c-28,9.9-36.7,10.4-44.8,11.7c-6.1,0.9-32.5,4.7-33.8,4.9l18.3,48.7
				c7.4-4.6,30.1-11.4,43.5-15.3c16.8-4.8,36.2-9,68.2-11.7c32.2-2.7,45.7-6.4,60.6-11c15.1-4.6,19.6-6.4,32-7.4
				c12.3-1.2,27.2,2.5,42.1,0.1c14.9-2.4,18.1-6.5,35.6-8.2c17.6-1.6,23.4-3.8,34-4.9c10.5-1.1,24.3-1.3,49-8.5
				c24.7-7.2,39.4-12.8,39.4-12.8s7.6-2.5,17-7.1l-28.2-107.1C692.4,489.5,685.6,494.2,685.6,494.2z"/>
			<path fill="#FFFFFF" d="M306.1,625.4c0,0,16.6-0.2,26.3-2.8c0,0-0.3,29.9,6.4,43.7c0,0-25.5,6.2-41.7,18.5
				C280.8,697.1,306.1,625.4,306.1,625.4z"/>
			<path fill="#F88011" d="M291.4,626.5c-7.2,0.9-28.2,5-28.2,5s-6.5-0.5-13,4c-6.6,4.3-6.1,15.3-4.2,30.6c2,15.1,6.2,18.6,9.1,22.9
				c2.9,4.3,1.1,11,1.8,17.1c0.6,6,1.6,23.2,8.7,34.9c7,11.9,18.8,24.8,31.6,28.6c13,4,18.4-2.2,21.9-6.5c3.5-4.4,3.2-7.4,3.2-7.4
				s-18.8-62-7.6-78.4c1.1-1.6-1.6-8.9-5.9-16.9c-6.7-12.4-4.7-19,3.1-33.7C314.8,621.1,294.7,626.1,291.4,626.5z"/>
		</g>
		<path fill="#1B75BC" d="M677.3,488c0,0-2.1,5.7-2.3,9.1c-0.1,3.3,0,4.4,0,4.4s5.6-3.7,7.5-5.7c2-1.8,2.5-0.1,2.5-0.1
			s7.3,20.3,8.6,43.4c1.3,22.9,1.1,27.3,2.8,37.2c1.5,10.1,9.9,24.6,9.9,24.6s7-0.7,25.4-10.1c18.3-9.3,35.7-18,46-21
			c10.3-3,23.3-4.9,35.4-5.9c12.1-1,23.5-3.9,23.5-3.9s5.6-26.9,0.6-54.3c-5.1-27.5-12.8-44.3-12.8-44.3s-19.6-0.3-29.4-3.2
			c-9.8-2.7-27.2-7.2-41.2-5.4c-13.9,1.6-27.5,7.5-47.5,17.3c-19.9,9.8-26.5,13.2-26.5,13.2L677.3,488z"/>
		<path fill="#FFFFFF" d="M1052.3,407.6c-19.1-31.3-108.2-12.9-126.5-4c-8.6,4.2-22,13.5-34.6,23.8c0,0,5.1,24.3,10,42.7
			c5.4,20.1,9.3,36.6,10.2,42.1c1,5.3,1.6,23,1.6,23s10.5-6.4,14.5-6.8c3.8-0.4,11.6,2.8,20.8,3.7c2.9,0.3,6.5,0.4,10.1,0.4
			c5.3,3.1,20.3,11.1,32.4,9.2c15-2.4,59.8-38.3,67.7-80C1058.6,461.8,1064.3,427.3,1052.3,407.6z M1051.6,461.9
			c-3.1,23.4-31,53.7-59.2,59.7c7.3-6.8,9.8-12.6,7.5-16.5c-8-13.3-16.5-6.9-35.3-28.6c-0.4-0.5-5.2-10.7-5.4-11.3
			c-4.4-16.7,9.8-44.7,34.9-48.8C1037.4,409.2,1055.2,434.8,1051.6,461.9z"/>
		<path fill="#BB5E11" d="M1114.1,349.8c-9.9,1.4-19.6,4.7-27.9,9.4c-5.9,3.4-10.9,7.7-14.7,12.7c-0.1,0-0.1,0-0.1,0
			c-6.1,8-8.7,17.9-5.9,29.4c0,0.1,0.1,0.3,0.1,0.4c5.5,22,21.2,14.8,33.5,2.2c13-13.2,25.4-4,31.3,8.8
			c7.7,14.3,13.3,21.5,30.9,25.8c11.3,3.2,21.1,4.2,31.5,3.7c1.4,0,37.9-26.7-7.3-73.4C1161.5,344.1,1130.3,347.4,1114.1,349.8z"/>
		<g opacity="0.15">
			<path fill="#231F20" d="M304.8,761.4c1,0.2,1.9,0.4,2.6,0.4c-24.9,7.3-43.6-14.5-50.3-30c-12.4-7.8-20.4-21.7-22.3-30.1
				c-3.6-15.8-2.9-10.6-6.6-38.1c-1.8-13.7-7.2-15.2-8.3-28.6c-0.1,3.3-0.1,6.6,0,9c1,14,6.5,15.3,8.4,29.2
				c3.6,27.5,3,22.3,6.6,38.1c1.9,8.4,9.9,22.3,22.3,30.1c6.7,15.5,25.4,37.4,50.3,30c-0.8-0.1-1.7-0.2-2.6-0.4
				c7.6,0,11.4-4.5,14.2-7.8c3.5-4.4,3.2-7.4,3.2-7.4s-0.5-1.8-1.4-4.9c-0.5,0.8-1,1.7-1.8,2.7C316.2,756.9,312.4,761.4,304.8,761.4
				z"/>
			<path fill="#231F20" d="M682.4,486.3c-0.2,0.2-0.5,0.4-0.7,0.7c0.8-0.4,1.7-0.9,2.6-1.4C683.9,485.4,683.3,485.4,682.4,486.3z"/>
			<path fill="#231F20" d="M1192.8,432.7c-0.3,0-0.6,0-0.8,0c-8.1,7.6-16.1,8.4-19.1,9.8c-9.7,4.4-15.2,11.8-17.5,15
				c-2.3,3-6.5,12.6-11,16.9c-4.4,4.1-9.7-3.9-9.7-3.9s-3.4,3.2-5.3,4.3c-1.9,1.1-4.6-0.1-4.6-0.1s-0.4,1.5-1.7,2.8
				c-1.2,1.1-3.6-0.2-7.1-1.3c-3.5-1.1-3,1.2-7.3,3.7c-4.2,2.3-12.2-0.4-14.6-9.4c-2.4-8.8-4.8-14.9-4.8-14.9s-5.7,0.3-13.1-0.6
				c-7.5-0.8-17.6-2.7-17.6-2.7c0,0,0,0,0,0c-0.5,3.5-1.6,7.4-3.1,11.4c-0.1,0.2-0.1,0.4-0.2,0.6c0,0.1-0.1,0.2-0.1,0.2
				c-3,8.2-7.2,16.1-12.2,23.4c-10.2,16.1-22.9,30.8-30.5,36.3c-14.1,10.2-25.9,9.9-35.8,6.8c-7.7-2.1-14.6-5.8-18-7.8
				c-0.1,0-0.2-0.1-0.3-0.1c-3.5,0-7.1-0.1-10-0.4c-9.1-0.9-17-4.1-20.8-3.7c-3.9,0.4-15,6.9-15,6.9s0.1-0.5,0-1.3
				c-3.4,1.3-7.1,2.3-12.1,2.9c-12.1,1.6-23,8.9-33.3,12.7c-9.5,3.7-27.6,8.3-30.4,9.1c-0.1,0.7-0.2,1.1-0.2,1.1s-11.4,2.9-23.5,3.9
				c-12.1,1-25,2.9-35.4,5.9c-10.3,3-27.7,11.7-46,21c-18.4,9.4-25.4,10.1-25.4,10.1s-0.1-0.2-0.3-0.5c-6.7,2.3-17.5,5.9-31.5,10
				c-24.7,7.2-38.6,7.4-49,8.5c-10.6,1.1-16.4,3.3-34,4.9c-17.6,1.7-20.7,5.8-35.6,8.2c-14.9,2.3-29.8-1.3-42.1-0.1
				c-12.3,1-16.9,2.8-32,7.4c-15,4.6-28.5,8.3-60.6,11c-32.1,2.7-51.4,6.8-68.2,11.7c-4.1,1.2-9,2.7-14.2,4.2l0,0l0,0
				c-8.4,2.6-17.2,5.5-23.4,8.1c-0.3,0.1-0.5,0.2-0.8,0.3c0.3,1.3,0.3,2.2-0.1,2.7c-3.1,4.6-3.9,12.8-3.4,22.2
				c0.4-5.3,1.4-9.7,3.4-12.7c0.3-0.4,0.3-1.4,0.1-2.7c0.3-0.1,0.5-0.2,0.8-0.3c6.2-2.6,15-5.5,23.4-8.1l0,0l0,0
				c5.1-1.6,10.1-3,14.2-4.2c16.8-4.8,36.2-9,68.2-11.7c32.2-2.7,45.7-6.4,60.6-11c15.1-4.6,19.6-6.4,32-7.4
				c12.3-1.2,27.2,2.5,42.1,0.1c14.9-2.4,18.1-6.5,35.6-8.2c17.6-1.6,23.4-3.8,34-4.9c10.5-1.1,24.3-1.3,49-8.5
				c14-4.1,24.8-7.7,31.5-10c0.2,0.3,0.3,0.5,0.3,0.5s7-0.7,25.4-10.1c18.3-9.3,35.7-18,46-21c10.3-3,23.3-4.9,35.4-5.9
				c12.1-1,23.5-3.9,23.5-3.9s0.1-0.4,0.2-1.1c2.9-0.7,20.9-5.4,30.4-9.1c10.3-3.8,21.1-11.2,33.3-12.7c5.1-0.7,9.1-1.7,12.5-3
				c0,0.8,0,1.2,0,1.2s10.5-6.4,14.5-6.8c3.8-0.4,11.6,2.8,20.8,3.7c2.9,0.3,6.5,0.4,10,0.4c0.1,0,0.2,0.1,0.3,0.1
				c3.4,2,10.4,5.7,18,7.8c9.9,3.1,21.7,3.4,35.8-6.8c7.6-5.5,20.3-20.2,30.5-36.3c5-7.3,9.2-15.2,12.2-23.4c0-0.1,0.1-0.2,0.1-0.2
				c0.1-0.2,0.1-0.4,0.2-0.6c1.5-4,2.6-7.9,3.1-11.4c0,0,0,0,0,0c0,0,10.1,2,17.6,2.7c7.4,0.9,13.1,0.6,13.1,0.6s2.5,6.1,4.8,14.9
				c2.4,9,10.4,11.7,14.6,9.4c4.3-2.5,3.8-4.7,7.3-3.7c3.5,1.1,6,2.4,7.1,1.3c1.3-1.3,1.7-2.8,1.7-2.8s2.7,1.2,4.6,0.1
				c1.9-1.1,5.3-4.3,5.3-4.3s5.3,7.9,9.7,3.9c4.4-4.2,8.7-13.9,11-16.9c2.2-3.1,7.8-10.6,17.5-15c3.1-1.4,11-2.2,19.1-9.8
				c0.3,0,0.6,0,0.8,0c1,0,17.7-12,15-34C1205.6,424.1,1193.6,432.7,1192.8,432.7z"/>
		</g>
		<path opacity="0.15" fill="#231F20" d="M971.9,520.1c0.9,15.2,1.3,37,4.5,74.9c0.8,8.7-0.4,31.8,0.9,46.5
			c0.7,7.4,1.5,15.2,2.5,23.1c4.5,37.1,6.7,38.9,8.5,50.4c2.3,15.3,2.3,21.1,3.5,33.4c1.3,12.3,2.3,21.5,10.9,25.6
			c8.4,4.2,16.6-0.3,31-1.2c14.4-0.9,44.6-2.5,44.6-2.5s9.4-1,14.3-1.3c4.7-0.3,7.5-3.8,7.5-3.8s-4.3-6.4-9.1-6.1
			c-4.7,0.3-7.4-1.9-7.4-1.9s-1-2.3-5.3-2c-4.3,0.3-10.1-0.3-10.1-0.3s-4.4-0.7-9.7-0.3c-5.2,0.3-9.5-0.4-9.5-0.4s-2.5-2.2-12.5-1.5
			c-10,0.6-10,1.8-14.6-0.8c-4.5-2.5-5.8-15.8-6-25.4c-0.1-9.6-0.1-34.8,2.8-50.8c2.8-15.9,3.2-30.3,0.7-47.7
			c-2.5-17.5-3.4-22.8-2.2-34.3c1.2-11.5,4.2-34.1,5-42.4c1-8.1,2.2-26.7,5.7-36.8c5.8-16.7,7.2-42.3,7.2-42.3
			c0.4-20-9.9-29.6-15.8-32.3c-32.3-14.8-37.6,4.4-45.3,15.3C961.2,473.5,971.9,520.1,971.9,520.1z"/>
		<path fill="#EBD6C0" d="M975.1,515.4c0.9,15.6,1.3,38,4.7,77.1c0.8,8.9-0.4,32.7,0.9,47.9c0.7,7.6,1.6,15.7,2.5,23.8
			c4.6,38.2,6.9,40.1,8.7,51.9c2.4,15.7,2.4,21.7,3.6,34.4c1.4,12.7,2.4,22.1,11.1,26.4c8.5,4.3,16.9-0.3,31.6-1.2
			c14.6-0.9,45.5-2.5,45.5-2.5s9.6-1.1,14.6-1.4c4.8-0.3,7.6-3.9,7.6-3.9s-4.4-6.6-9.2-6.3c-4.8,0.3-7.5-2-7.5-2s-1-2.4-5.4-2.1
			c-4.4,0.3-10.3-0.4-10.3-0.4s-4.5-0.7-9.9-0.3c-5.3,0.3-9.7-0.4-9.7-0.4s-2.6-2.2-12.8-1.6c-10.2,0.7-10.2,1.8-14.8-0.9
			c-4.6-2.6-5.9-16.3-6.1-26.2c-0.1-9.9-0.1-35.8,2.8-52.3c2.8-16.4,3.3-31.2,0.7-49.1c-2.6-18.1-3.5-23.5-2.2-35.3
			c1.2-11.8,4.2-35.1,5.1-43.7c1-8.4,2.2-27.5,5.8-37.9c5.9-17.2,7.3-43.6,7.3-43.6c0.3-20.6-10.2-30.5-16.2-33.3
			c-32.9-15.2-38.3,4.5-46.1,15.7C964.1,467.5,975.1,515.4,975.1,515.4z"/>
	</g>
</g>
</svg>
