<svg width="57" height="84" viewBox="0 0 57 84" fill="none" xmlns="http://www.w3.org/2000/svg">
<path d="M48.5204 25.3133C48.5204 25.3133 49.7135 16.5638 51.702 18.95C53.6906 21.3362 51.702 24.9156 51.702 24.9156L50.1112 26.9041L48.5204 25.711V25.3133Z" fill="#FFB8B8"/>
<path d="M43.7478 28.0972C43.7478 28.0972 47.7249 23.7225 48.5203 24.5179C49.3157 25.3133 51.702 25.711 51.3042 27.3018C50.9065 28.8926 42.5547 34.0628 42.5547 34.0628L43.7478 28.0972Z" fill="#F982C6"/>
<path opacity="0.1" d="M43.7478 28.0972C43.7478 28.0972 47.7249 23.7225 48.5203 24.5179C49.3157 25.3133 51.702 25.711 51.3042 27.3018C50.9065 28.8926 42.5547 34.0628 42.5547 34.0628L43.7478 28.0972Z" fill="black"/>
<path d="M21.0786 27.6996V30.8812C21.0786 30.8812 20.6809 38.04 23.0671 37.6423C25.4533 37.2446 24.2602 31.279 24.2602 31.279L23.8625 27.6996H21.0786Z" fill="#FFB8B8"/>
<path d="M22.2717 50.7667C22.2717 50.7667 18.6923 56.3346 17.4992 56.7323C16.3061 57.13 9.94279 60.7093 9.14737 64.2887L3.57947 71.4474L6.36342 75.0268C6.36342 75.0268 19.09 61.5048 22.6694 60.3116C26.2488 59.1185 29.8281 53.1529 29.8281 53.1529L22.2717 50.7667Z" fill="#FFB8B8"/>
<path d="M50.509 41.6193C50.509 41.6193 58.0654 42.8124 56.8723 47.5849C55.6792 52.3574 44.1457 62.3001 44.1457 62.3001L43.7479 64.6864L39.3732 65.4818L37.3846 63.4932L37.7823 62.3001C37.7823 62.3001 42.5548 57.9253 42.9525 56.3345C43.3503 54.7437 47.725 48.3803 49.7136 47.9826L46.9296 46.3918L50.509 41.6193Z" fill="#FFB8B8"/>
<path d="M4.77249 71.4474C4.77249 71.4474 6.36332 69.0612 3.97707 69.4589C1.59083 69.8566 0 70.2543 0 71.8451C0 73.436 1.98854 84.5718 4.37478 83.7764C6.76102 82.9809 4.77249 79.4016 4.77249 79.4016C4.77249 79.4016 5.96561 76.2199 6.76102 75.8222C7.55644 75.4245 7.55644 73.436 6.76102 73.436C5.96561 73.436 4.37478 72.2429 4.77249 71.4474Z" fill="#2F2E41"/>
<path d="M38.5777 62.6978C38.5777 62.6978 38.5777 60.7093 36.9868 62.6978C35.396 64.6864 34.6006 66.2772 36.1914 67.4703C37.7822 68.6634 43.3501 71.4474 43.3501 71.4474C43.3501 71.4474 49.3158 72.6405 48.5203 69.8565C48.5203 69.8565 44.5433 67.868 44.5433 66.2772C44.5433 64.6863 44.5433 61.9024 43.3501 62.6978C42.157 63.4932 38.5777 63.8909 38.5777 62.6978Z" fill="#2F2E41"/>
<path d="M31.0212 32.8698C31.0212 32.8698 25.4533 33.6652 25.851 41.6193C25.851 41.6193 18.6923 48.778 20.6808 51.1643C22.6694 53.5505 27.0441 57.9253 28.635 56.7322C30.2258 55.5391 34.9983 46.3918 34.9983 46.3918C34.9983 46.3918 46.1341 50.3689 48.1226 48.3803C50.1112 46.3918 52.0997 41.6193 52.0997 41.6193L42.157 36.4491L31.0212 32.8698Z" fill="#2F2E41"/>
<path d="M46.5319 10.2004C49.1677 10.2004 51.3044 8.06371 51.3044 5.42794C51.3044 2.79217 49.1677 0.655457 46.5319 0.655457C43.8961 0.655457 41.7594 2.79217 41.7594 5.42794C41.7594 8.06371 43.8961 10.2004 46.5319 10.2004Z" fill="#FFB8B8"/>
<path d="M42.9524 5.82568C42.9524 5.82568 40.1685 10.2005 39.3731 10.5982C38.5777 10.9959 44.941 14.9729 44.941 14.9729C44.941 14.9729 44.941 9.80276 46.9295 8.60963L42.9524 5.82568Z" fill="#FFB8B8"/>
<path d="M42.5547 10.2005C42.5547 10.2005 36.1914 8.21194 34.9983 11.3936C33.8051 14.5753 31.0212 20.5409 31.4189 24.5179C31.8166 28.495 32.612 27.6996 31.4189 28.8927C30.2258 30.0858 29.4304 29.2904 29.8281 30.8813C30.2258 32.4721 30.6235 32.4721 30.2258 33.2675C29.8281 34.0629 34.9983 36.8469 39.373 37.2446L43.7478 37.6423C43.7478 37.6423 43.7478 30.4835 44.5432 28.8927C45.3387 27.3019 46.9295 24.1202 46.9295 22.9271V19.7702C46.9295 17.669 46.3811 15.6042 45.3387 13.7798C45.3387 13.7798 42.9524 10.2005 42.5547 10.2005Z" fill="#F982C6"/>
<path d="M37.7823 11.7913C37.7823 11.7913 23.0671 12.9844 21.4763 16.9615C19.8854 20.9386 19.09 28.8927 20.6809 28.8927C22.2717 28.8927 24.2602 29.6881 24.6579 28.8927C25.0556 28.0973 26.6465 20.1432 27.0442 20.1432C27.4419 20.1432 39.3731 18.9501 39.3731 18.9501C39.3731 18.9501 44.5433 12.5867 37.7823 11.7913Z" fill="#F982C6"/>
<path d="M46.7235 4.24482C46.7235 4.24482 47.99 2.04391 49.5731 3.9556C51.1562 5.86729 53.7315 2.35423 53.3362 1.60461C52.9408 0.854997 51.5447 1.63831 49.1521 0.856174C46.7595 0.0740333 42.1506 -1.51935 41.3787 3.67831C40.6068 8.87597 42.4451 8.33107 42.4451 8.33107C42.4451 8.33107 43.2878 3.72538 44.0494 5.04833L44.811 6.37129L45.4716 6.53388L46.7235 4.24482Z" fill="#2F2E41"/>
</svg>
