<?xml version="1.0" encoding="utf-8"?>
<!-- Generator: Adobe Illustrator 16.0.0, SVG Export Plug-In . SVG Version: 6.00 Build 0)  -->
<!DOCTYPE svg PUBLIC "-//W3C//DTD SVG 1.1//EN" "http://www.w3.org/Graphics/SVG/1.1/DTD/svg11.dtd">
<svg version="1.1" id="Objects" xmlns="http://www.w3.org/2000/svg" xmlns:xlink="http://www.w3.org/1999/xlink" x="0px" y="0px"
	 width="1400px" height="980px" viewBox="0 0 1400 980" enable-background="new 0 0 1400 980" xml:space="preserve">
<g>
	<rect fill="#E1F4F3" width="1400" height="980"/>
	<polygon opacity="0.2" fill="#92D3D0" points="0,0 1400,820.719 0,827.365 	"/>
	<polygon opacity="0.4" fill="#9BBCBB" points="1400,0 0,980 1400,980 	"/>
	<rect y="765.555" fill="#B5B5B5" width="1400" height="214.445"/>
</g>
<g>
	<path fill="#001215" d="M985.444,38.527h-12.847c0,0-17.883,16.25,0,32.748h18.389c0,0,12.847-6.172,12.091-17.585
		C1002.321,42.278,991.237,37.276,985.444,38.527z"/>
	<path fill="#001215" d="M1009.072,192.419c0,0-34.356,39.3,0,62.741c0,0-13.985,24.014-4.243,26.217
		c9.74,2.218,5.307,10.469,11.055-0.444c5.752-10.929,1.854-22.967-1.282-25.059L1009.072,192.419z"/>
	<ellipse fill="#9A9E9E" cx="1068.865" cy="884.711" rx="174.262" ry="28.301"/>
	<path fill="#001215" d="M1071.387,49.925h-15.982c0,0-10.031,4.225-10.823,15.882c-0.793,11.658,10.295,17.609,10.295,17.609
		h16.511C1071.387,83.416,1046.938,68.968,1071.387,49.925z"/>
	<path fill="#0C2F33" d="M1071.02,83.416c0,0,14.756-15.438,0-33.491C1071.02,49.925,1046.571,67.442,1071.02,83.416z"/>
	<path fill="#0C2F33" d="M988.757,71.829h-16.512c0,0-11.087-5.949-10.294-17.608c0.791-11.657,10.822-15.881,10.822-15.881h15.983
		C988.757,38.34,964.685,58.858,988.757,71.829"/>
	<path fill="#FFCC99" d="M1010.336,272.845c0,0,4.943,14.976,4.414,28.967c-0.528,13.991,4.488,11.089,8.448,11.352
		C1027.158,313.428,1022.29,274.502,1010.336,272.845z"/>
	<g>
		<g id="XMLID_1_">
			<g>
				<path fill="#F9B480" d="M1090.138,255.421c1.933-2.629,3.817-4.784,5.528-6.146c-1.188-35.64,7.523-63.756,3.96-65.736
					c-3.564-1.98-9.108-26.136-7.128-39.204c1.979-13.068-4.356-34.721-4.087-37.097c0.253-2.376-11.088-24.917-11.627-25.867
					c-7.477-1.204-6.668,1.441-9.234,0.269s-3.295-5.084-7.889-9.25c-2.692-3.675,2.123-5.607,2.899-13.163
					c2.93-6.875,6.573-5.053,6.573-5.053c1.948-0.127,3.929-0.08,5.813,0.047c0,0-9.251,11.041-1.584,20.021
					c7.65,8.981,17.678,5.544,21.114,31.411c3.438,25.882,13.464,54.648,11.357,69.442c-1.964,13.638-8.189,86.819-6.02,98.857
					c-1.425-2.281-3.357-6.589-5.068-14.398c-0.855-3.865-1.679-4.705-2.55-3.612L1090.138,255.421z"/>
				<path fill="#F9B480" d="M990.552,336.411l4.673-0.839c0.411,3.121,1.806,6.875,5.005,11.722
					c14.652,22.176,16.442,74.036,16.442,74.036s-3.168,13.654,11.674,27.134c14.842,13.464-12.878,0.998-21.97,21.78
					c0,0-0.317-0.095-0.808-0.269c-4.293-2.708-6.399-4.72-6.399-4.72c20.592-43.719,4.371-98.446-3.691-113.415
					C992.816,346.913,991.344,341.496,990.552,336.411z"/>
				<path fill="#FFD4AE" d="M1007.563,236.778c-0.935,16.204-1.79,29.019-0.808,29.921c2.186,1.98,3.58,6.146,3.58,6.146
					l2.565-2.708c1.315-4.752,0.27-17.424,0.27-17.424C1010.716,246.915,1008.879,241.625,1007.563,236.778z M1119.553,275.396
					c-4.214,9.504-7.92,55.963-7.92,55.963c12.149,27.466,0,50.688-1.046,53.856c-1.062,3.168-1.584,30.634-6.874,40.677
					c-5.275,10.042-1.046,42.213,1.061,46.965c0.27,0.618,0.539,2.043,0.792,4.071c-54.632,15.396-87.151,1.156-99.997-6.954
					c0.49,0.174,0.808,0.269,0.808,0.269c9.092-20.782,36.812-8.316,21.97-21.78c-14.842-13.48-11.674-27.134-11.674-27.134
					s-1.79-51.86-16.442-74.036c-3.199-4.847-4.594-8.601-5.005-11.722c-1.489-11.151,9.71-13.987-3.707-28.227
					c-17.154-18.216,1.584-34.579-3.96-40.661c-5.544-6.067,8.189-16.885,1.125-52.003c-7.064-35.101,14.192-59.13,6.795-61.76
					c-7.397-2.645-3.437-65.213-1.853-75.778c1.584-10.549-4.784-10.819-4.784-10.819c-15.634-17.947,0-26.278,0-26.278
					c11.057-0.745,7.619,4.499,7.619,4.499c-12.862,16.426,4.958,21.59,6.637,22.762c1.695,1.204,1.727,3.77,1.727,3.77
					c-8.078,2.107,10.851,95.436,3.326,107.712c0.713,6.035,0.919,13.67,0.855,21.938c8.823-15.634,28.449-16.125,28.449-16.125
					s46.997-5.291,43.56,44.875c-3.438,50.165-21.685,48.581-21.685,48.581s-5.195-0.412-11.326-2.233
					c-4.609-1.869-10.2-5.069-16.616-10.438c0,0,8.158,18.833,25.36,20.37l-0.016,0.111c7.381,25.534,6.336,9.076,18.216,9.599
					c9.504,0.412,13.765-35.102,17.25-39.521c0.871-1.093,1.694-0.253,2.55,3.612c1.711,7.809,3.644,12.118,5.068,14.398
					c0.19,1.014,0.428,1.6,0.729,1.679c0.332,0.095,0.586,0.19,0.792,0.269c0.681,0.649,0.823,0.38,0,0
					c-0.364-0.333-0.903-0.95-1.521-1.948c-2.17-12.039,4.056-85.219,6.02-98.857c2.106-14.794-7.92-43.56-11.357-69.442
					c-3.437-25.867-13.464-22.43-21.114-31.411c-7.667-8.981,1.584-20.021,1.584-20.021c6.035,0.428,11.088,1.806,11.088,1.806
					c-14.003,25.075,10.818,28.243,10.818,28.243c22.177,48.043,24.283,93.456,26.929,94.501
					C1126.427,179.833,1123.782,265.892,1119.553,275.396z"/>
				<path fill="#001215" d="M1058.838,686.174c-3.69-12.133-11.088-123.013-11.088-123.013s-7.397-22.715-8.443,7.92
					c-1.061,30.618-18.484,84.475-22.176,108.234c-3.706,23.76-17.424,43.829-15.84,49.12c1.584,5.274-3.168,45.936-7.92,54.379
					c-4.752,8.442-5.021,57.103-5.021,57.103c-8.11,33.851-22.968,6.796-22.968,6.796c-10.026-173.194,23.76-142.561,16.362-176.362
					c-7.381-33.787,1.062-121.969,1.062-121.969s-9.504-34.578,14.256-78.931c0.745-1.378,1.441-2.788,2.107-4.197
					c-0.903,1.996,4.34,4.023,6.399,4.72c12.846,8.11,45.365,22.35,99.997,6.954c1.695,13.512,2.899,53.492,2.899,53.492
					c15.317,42.768-7.382,122.49-7.382,122.49s-3.706,41.723-1.062,50.704c2.646,8.965,8.443,33.264,8.443,33.264
					s-4.214,55.963-3.168,81.83c1.061,25.882-26.929,34.325-24.108,17.962c2.819-16.378,0-40.661,0-40.661
					c-23.57-54.917-12.847-92.934-12.847-92.934S1062.528,698.323,1058.838,686.174z"/>
				<path fill="#EABC8F" d="M1063.099,277.882l-1.062,7.809C1062.101,282.286,1062.671,278.865,1063.099,277.882z"/>
				<path fill="#F9B480" d="M974.094,56.819c-3.563-1.394-2.566-7.92-2.566-7.92c1.584,0.396,15.635-8.712,15.635-8.712
					c0.586-0.063,1.156-0.111,1.679-0.143c0,0-15.634,8.332,0,26.278c0,0,6.368,0.27,4.784,10.819
					c-1.584,10.565-5.545,73.133,1.853,75.778c7.397,2.63-13.859,26.659-6.795,61.76c7.064,35.118-6.669,45.936-1.125,52.003
					c5.544,6.083-13.194,22.445,3.96,40.661c13.417,14.24,2.218,17.076,3.707,28.227l-4.673,0.839
					c-1.695-10.85-0.222-20.212-0.222-20.212c-25.345-15.84-8.316-51.084-11.88-53.46c-3.564-2.376,3.96-98.208,8.315-103.72
					c-7.92-35.276,8.11-89.132,0-89.718C978.655,68.699,977.658,58.213,974.094,56.819z"/>
				<path fill="#EABC8F" d="M1031.387,265.385c6.416,5.37,12.007,8.569,16.616,10.438
					C1042.031,274.018,1035.173,270.865,1031.387,265.385z"/>
				<path fill="#F9B480" d="M1062.037,285.691c-0.079,3.849,0.476,7.635,2.646,7.746c4.056,0.19,8.016,0.982,8.016,0.982
					c-1.299-4.229,8.537-26.833,17.439-38.998l2.06,0.522c-3.485,4.419-7.746,39.933-17.25,39.521
					c-11.88-0.523-10.835,15.935-18.216-9.599l0.016-0.111C1058.426,285.913,1060.185,285.897,1062.037,285.691z"/>
				<path fill="#F9B480" d="M1056.747,285.755c-17.202-1.537-25.36-20.37-25.36-20.37c3.786,5.48,10.645,8.633,16.616,10.438
					c9.646,3.913,15.096,2.059,15.096,2.059c-0.428,0.982-0.998,4.404-1.062,7.809
					C1060.185,285.897,1058.426,285.913,1056.747,285.755z"/>
				<path fill="#001215" d="M999.169,465.254c0,0,2.106,2.012,6.399,4.72C1003.509,469.277,998.266,467.25,999.169,465.254z"/>
			</g>
		</g>
		<path fill="none" d="M963.505,766.847c0,0,14.276,10.485,33.618,3.264"/>
		<path fill="none" d="M1070.598,764.406c0,0,29.331-1.176,36.506-7.089"/>
	</g>
	<path fill="#001215" d="M997.436,355.917c0,0,52.046-43.4,12.9-83.072c0,0,0.19-2.736,2.565-2.708
		c2.377,0.027,19.271,26.263,19.734,49.23c0.463,22.969,0,0.792,0,0.792s27.588,21.384,35.706,24.552
		c8.117,3.168,31.087-12.672,27.918-23.165c-3.168-10.494-18.055-26.335-23.562-27.128c-5.507-0.79-1.57-4.63-0.397-5.146
		c1.175-0.519,15.699,0.022,39.333,42.087c23.632,42.063-0.753,52.311-1.048,53.855c-0.293,1.546-0.905,28.072-3.754,30.712
		c-2.852,2.64-33.54-13.2-98.483,1.848C1008.349,417.773,1005.925,375.636,997.436,355.917z"/>
	<path fill="#001215" d="M1050.084,185.181c0,0,0.41,7.437-3.775,17.228c-3.066,7.171-8.597,15.605-18.558,23.306
		c-23.561,18.215,1.387,42.965,1.387,42.965s-27.193-9.498-20.725-48.11c0,0,1.591-26.543,0.563-27.331
		C1007.951,192.449,1028.856,171.576,1050.084,185.181z"/>
	<path fill="#001215" d="M1046.976,200.766c0,0,20.871,28.973,34.451,25.807c0,0-1.695,27.013-4.486,29.082
		c3.017,5.767,31.129-68.36-36.386-74.462"/>
	<path fill="#375154" d="M997.59,856.951c0,0,7.92-19.336-9.24-17.035c-17.159,2.303-9.24,4.414-11.615,2.303
		c-2.376-2.111-5.015,9.929,3.168,14.732c8.184,4.806-15.841-4.173-14.521-12.356c1.321-8.184-6.598,17.426-3.96,21.913
		c0,0-1.613,7.392-0.542,8.448c1.072,1.056-1.805,7.129-0.366,8.184s13.846,15.048,25.726,15.576
		c11.881,0.527,40.126,0.528,30.359-15.576C1006.83,867.036,996.271,861.387,997.59,856.951z"/>
	<path fill="#375154" d="M1080.222,834.3c0,0-3.167,8.978-1.584,10.031c0,0-4.056,7.393-0.444,11.352c0,0-5.1,14.257,2.028,15.577
		c7.128,1.319,20.329,0.792,28.513,6.071c8.183,5.279,46.199,8.185,43.822-2.375c-2.376-10.562-6.335-14.098-19.8-18.005
		c0,0-10.559-11.563-13.728-13.148c-3.168-1.584,0.535-15.574-4.484-18.479c-5.019-2.905-13.731-0.793-16.637,1.583
		c-2.902,2.378-3.958,8.976-1.847,11.616C1098.173,841.165,1082.863,841.161,1080.222,834.3z"/>
	<path fill="#F9B480" d="M979.074,303.452c0,0,11.053,17.916,11.2,30.965c0.148,13.05,1.732-21.169,1.732-21.169L979.074,303.452z"
		/>
	<path fill="#F9B480" d="M1084.018,77.127c0,0-6.581,4.343-7.232,4.244c-0.652-0.098-18.717-19.464-4.555-27.268
		c0,0,12.786,0.31,13.886,2.234C1087.217,58.264,1081.368,76.878,1084.018,77.127z"/>
	<g id="XMLID_4_">
		<g>
			<path fill="#0C2F33" d="M1032.03,53.049c0.792,12.056-12.672,18.568-12.672,18.568c-25.509-13.09-5.809-34.584-5.809-34.584
				C1019.622,35.713,1031.238,40.993,1032.03,53.049z"/>
			<path fill="#0C2F33" d="M1019.358,71.617h-19.272c-18.744-17.424,0-34.584,0-34.584h13.464
				C1013.55,37.033,993.85,58.527,1019.358,71.617z"/>
		</g>
	</g>
	<ellipse fill="#001215" cx="1018.756" cy="54.321" rx="12.886" ry="17.292"/>
	<g id="XMLID_5_">
		<g>
			<path fill="#0C2F33" d="M1117.85,65.498c0.792,12.056-12.672,18.568-12.672,18.568c-25.509-13.09-5.809-34.584-5.809-34.584
				C1105.441,48.162,1117.058,53.442,1117.85,65.498z"/>
			<path fill="#0C2F33" d="M1105.178,84.066h-19.272c-18.744-17.424,0-34.584,0-34.584h13.464
				C1099.369,49.482,1079.669,70.976,1105.178,84.066z"/>
		</g>
	</g>
	<ellipse fill="#001215" cx="1104.576" cy="66.77" rx="12.886" ry="17.292"/>
</g>
<g>
	<path fill="#001215" d="M397.713,310.081c0,0,9.048-6.562,6.525-18.755c-2.522-12.192-6.054-13.879-6.054-13.879
		s-38.038,16.563-1.915,33.264L397.713,310.081z"/>
	<ellipse fill="#9A9E9E" cx="314.403" cy="866.506" rx="174.261" ry="28.301"/>
	<g id="XMLID_2_">
		<g>
			<path fill="#FFD4AE" d="M288.082,284.394c0.428-0.586,8.205-11.247,19.515-8.411c0,0-1.853-4.752-17.962-5.021
				c0,0-8.427-0.095-13.369,4.023l-0.158-0.174c12.482-9.947,12.989-28.369,4.863-36.052
				c-26.437-56.485,24.298-68.112,24.298-68.112s46.981-5.275,43.56,44.891c-3.437,50.149-21.701,48.565-21.701,48.565
				s-0.522,11.88,5.813,12.418c6.336,0.522,29.557,9.757,32.472,10.819c2.899,1.061,24.014,13.464,21.638,38.539
				c0,0,10.565,32.203,8.981,38.285c-1.584,6.067,7.92-18.485,7.651-50.165c0,0-4.482-8.712-15.048-15.317
				c-10.549-6.589,3.707-16.632,4.499-17.155c0.792-0.522,14.509-4.229,20.053-0.522c0,0-0.253,32.472,6.336,28.765
				c0,0,2.376,69.427-5.274,81.576c0,0,0.792,27.72-9.235,29.05c-10.042,1.315-16.901-6.605-20.069-14.002
				c-3.168-7.381-19.008-39.331-19.008-39.331s1.853,31.934-0.27,53.856c0,0,0.095,0.269,0.238,0.776
				c-0.412,7.746-4.451,25.027,1.077,33.138c-13.274,5.639,7.128,36.844-105.067-10.154c0,0,11.626-14.794,13.733-19.546
				s0-12.672,0-12.672s14.589-16.363,11.452-47.251c0,0,3.992-41.58,7.16-43.164c0,0,7.793-12.276,5.94-14.921
				c-1.854-2.629-17.488-3.691-13.1-22.699C291.376,265.908,288.24,283.459,288.082,284.394z"/>
			<path fill="#FFD4AE" d="M289.634,270.961c16.109,0.27,17.962,5.021,17.962,5.021c-11.31-2.835-19.087,7.825-19.515,8.411
				c0.158-0.935,3.294-18.485-0.982,0.032c-4.388,19.008,11.247,20.069,13.1,22.699c1.853,2.645-5.94,14.921-5.94,14.921
				c-3.168,1.584-7.16,43.164-7.16,43.164c3.137,30.888-11.452,47.251-11.452,47.251s-3.438,13.733-17.947,7.397
				c0,0-8.189-6.336-5.544-13.986c0,0-5.449,3.057-6.732-18.897c-0.016-0.095-0.016-0.19-0.016-0.301
				c-0.016-0.174-0.016-0.364-0.031-0.539c0-0.016,0-0.047,0-0.063c0.047-8.965,12.212-30.508,22.35-40.265
				c10.486-10.09,15.317-36.036,6.859-55.567c-3.39-7.841-1.632-12.498,1.679-15.254
				C281.208,270.866,289.634,270.961,289.634,270.961z"/>
			<path fill="#F9B480" d="M276.107,274.81l0.158,0.174c-3.311,2.756-5.069,7.413-1.679,15.254
				c8.458,19.531,3.627,45.477-6.859,55.567c-10.138,9.757-22.303,31.3-22.35,40.265c-0.459-8.981-0.253-21.954,1.235-40.661
				c0,0-0.539-3.168-5.021-8.712c-4.482-5.544-10.676-52.795,17.503-55.44C266.238,280.592,271.862,278.184,276.107,274.81z"/>
		</g>
	</g>
	<path fill="none" d="M358.784,284.813c-3.391,3.159,18.041,36.439,24.18,41.192c6.137,4.751,8.655,35.44,8.655,35.44
		c-5.203,19.009,2.829,38.81,2.829,38.81c-7.129-8.317,1.468-35.207,1.468-35.207l0.319-0.71"/>
	<path fill="#001215" d="M298.825,302.642c0,0,25.307,21.383,32.754,24.552c7.445,3.167,28.516-12.672,25.608-23.166
		c-2.905-10.493-16.563-26.334-21.612-27.127c-5.052-0.791-1.441-4.63-0.364-5.147s14.399,0.023,36.078,42.087
		s-0.688,52.311-0.959,53.856c-0.269,1.546-0.832,28.071-3.444,30.712c-2.613,2.638-30.767-13.201-90.34,1.848L298.825,302.642z"/>
	<path fill="#001215" d="M278.533,173.788c0,0-34.356,39.299,0,62.741c0,0-13.986,24.015-4.245,26.216
		c9.741,2.218,5.307,10.47,11.056-0.443c5.752-10.93,1.854-22.969-1.282-25.059L278.533,173.788z"/>
	<path fill="#001215" d="M318.443,167.626c0,0,0.41,7.435-3.775,17.228c-3.065,7.17-8.596,15.604-18.556,23.304
		c-23.563,18.217,1.386,42.967,1.386,42.967s-27.194-9.498-20.725-48.111c0,0,1.589-26.543,0.564-27.33
		C276.312,174.893,297.216,154.021,318.443,167.626z"/>
	<path fill="#001215" d="M315.334,183.211c0,0,20.873,28.973,34.453,25.806c0,0-1.695,27.014-4.485,29.082
		c3.016,5.766,31.126-68.359-36.389-74.461L315.334,183.211z"/>
	<path fill="#001215" d="M252.015,463.695c2.469-7.619,5.708-14.15,9.905-19.021c0,0,82.235,33.791,105.063,10.137
		c0.071,0.104,1.291,16.012,1.663,23.468c0.235,4.752-0.645,21.682-1.127,22.89c-2.112,5.281,30.098,49.634,18.479,148.898
		c0,0,4.39,23.234,1.14,32.739c-3.25,9.502,3.083,69.451-5.363,122.375c-8.447,52.924-34.688,14.312-28.96,10.386
		c5.728-3.926,3.616-50.916-0.607-60.951c-4.225-10.031-4.793-55.441-3.188-64.944c1.604-9.504-5.788-31.151-5.788-42.241
		c0-7.364-18.63-46.632-29.752-74.033c0,0-3.063-16.578-5.684-18.429c0,0-0.801,2.816-0.144,2.967
		c0.971,29.958-2.997,108.493-10.885,120.118c-10.033,14.786-17.954,61.777-16.369,62.833c1.584,1.058-17.14,72.885-12.769,80.795
		c4.371,7.911-27.201,43.748-29.655,4.182c0,0,8.104-1.557,0-80.222c-1.664-13.999,17.609-50.419,21.304-58.609
		c3.696-8.189-8.976-91.351-8.976-91.351S237.087,509.771,252.015,463.695L252.015,463.695z"/>
	<path fill="#375154" d="M270.183,838.219c0,0,7.92-19.336-9.24-17.035c-17.159,2.304-9.238,4.414-11.615,2.304
		c-2.376-2.112-5.016,9.927,3.168,14.731c8.183,4.805-15.84-4.173-14.52-12.356c1.319-8.183-6.601,17.426-3.96,21.913
		c0,0-1.614,7.392-0.544,8.447c1.072,1.058-1.805,7.13-0.367,8.186c1.439,1.054,13.847,15.047,25.727,15.574
		c11.88,0.528,40.125,0.529,30.359-15.574C279.424,848.303,268.865,842.655,270.183,838.219z"/>
	<path fill="#375154" d="M352.815,815.566c0,0-3.169,8.979-1.584,10.032c0,0-4.056,7.392-0.444,11.353c0,0-5.1,14.257,2.028,15.576
		c7.127,1.319,20.329,0.792,28.511,6.071c8.184,5.279,46.199,8.185,43.823-2.376c-2.375-10.561-6.336-14.096-19.8-18.004
		c0,0-10.559-11.564-13.727-13.148c-3.168-1.583,0.536-15.574-4.484-18.479c-5.02-2.903-13.733-0.792-16.636,1.584
		c-2.905,2.377-3.959,8.977-1.848,11.616S355.455,822.43,352.815,815.566z"/>
	<path fill="#F9B480" d="M327.128,264.102c0-1.671-19.537-1.927-27.721-12.978c-8.183-11.051,17.646,25.36,30.341,23.721
		C329.748,274.845,327.128,270.049,327.128,264.102z"/>
	<path fill="#F9B480" d="M366.886,398.408c0,0-49.46-4.885-63.357,5.794c-11.507,2.048-22.099,18.344-23.521,22.847
		c-1.656,5.244-3.886,9.867-6.736,13.4c-5.297,6.564,7.467,11.095,11.87,12.44c4.403,1.347-23.221-8.216-23.221-8.216
		s12.871-16.212,14.158-20.777c1.285-4.567-1.223-20.008-2.808-20.534C271.688,402.834,309.755,382.238,366.886,398.408z"/>
	<path fill="#F9B480" d="M371.842,311.364c-0.586-7.825,8.678,12.078,10.926,13.818c6.139,4.751-0.979,19.675,8.656,35.441
		c2.325,12.588-10.715,27.317,2.829,38.809c-6.12-6.021,1.467-35.206,1.467-35.206l0.32-0.709c1.78-5.933-9.186-38.463-9.186-38.463
		c1.341-31.316-28.268-41.065-28.268-41.065s-7.312-3.331-9.189-3.428c-1.877-0.097,18.334,20.866,20.901,31.374
		C370.299,311.936,372.006,313.553,371.842,311.364z"/>
	<path fill="#0C2F33" d="M284.705,301.559h-16.512c0,0-11.087-5.95-10.294-17.608c0.792-11.658,10.822-15.882,10.822-15.882h15.983
		C284.705,268.068,260.633,288.587,284.705,301.559L284.705,301.559z"/>
	<path fill="#FFD4AE" d="M275.648,412.46c0,0,14.588-16.364,11.452-47.251c0,0,3.99-41.58,7.159-43.164
		c0,0,7.794-12.275,5.939-14.921c-1.853-2.63-17.487-3.69-13.099-22.699c4.388-19.009,0.966,0,0.966,0s7.903-11.356,19.53-8.443
		c0,0-1.854-4.751-17.962-5.021c0,0-23.491-0.269-15.049,19.278c8.459,19.531,3.627,45.476-6.858,55.567
		c-10.486,10.09-23.142,32.821-22.303,41.168L275.648,412.46z"/>
	<g id="XMLID_7_">
		<g>
			<path fill="#0C2F33" d="M310.554,271.867c6.072-1.32,17.688,3.96,18.48,16.016c0.792,12.056-12.672,18.568-12.672,18.568
				C290.853,293.361,310.554,271.867,310.554,271.867z"/>
			<path fill="#0C2F33" d="M316.362,306.451H297.09c-18.744-17.424,0-34.584,0-34.584h13.464
				C310.554,271.867,290.853,293.361,316.362,306.451z"/>
		</g>
	</g>
	<path fill="#0C2F33" d="M397.769,277.447h-15.981c0,0-10.032,4.225-10.824,15.882c-0.793,11.658,10.295,17.609,10.295,17.609
		h16.511C397.769,310.938,373.321,296.49,397.769,277.447z"/>
	<path fill="#F9B480" d="M393.133,281.526c0,0-14.623,9.255-5.34,16.582c9.283,7.328,14.104,4.803,21.453,0.705
		c7.351-4.097,1.313-17.695,3.163-18.252C414.259,280.004,398.407,277.031,393.133,281.526z"/>
	<ellipse fill="#001215" cx="315.756" cy="289.159" rx="12.886" ry="17.292"/>
	<g id="XMLID_6_">
		<g>
			<path fill="#0C2F33" d="M448.037,292.689c0.792,12.056-12.672,18.568-12.672,18.568c-25.509-13.09-5.808-34.584-5.808-34.584
				C435.629,275.354,447.245,280.633,448.037,292.689z"/>
			<path fill="#0C2F33" d="M435.365,311.257h-19.272c-18.744-17.424,0-34.584,0-34.584h13.464
				C429.557,276.673,409.856,298.167,435.365,311.257z"/>
		</g>
	</g>
	<ellipse fill="#001215" cx="434.756" cy="293.966" rx="12.886" ry="17.292"/>
</g>
<g>
	<path fill="#001215" d="M765.9,552.536c0,0,9.047-6.562,6.525-18.755c-2.523-12.192-6.055-13.879-6.055-13.879
		s-38.037,16.562-1.914,33.263"/>
	<ellipse fill="#9A9E9E" cx="681.433" cy="900.327" rx="174.262" ry="28.3"/>
	<path fill="#FFD4AE" d="M686.568,666.823c0,0-0.132-7.097,0-13.256c0.133-6.162,16.764-20.418,26.665-37.446
		c9.898-17.027,7.811-10.989,7.811-10.989s-80.112-37.763-113.261-29.029c0,0-4.847,40.019-2.961,45.958
		c0,0-13.755,20.132-15.933,25.609C586.709,653.146,646.705,709.474,686.568,666.823z"/>
	<path fill="#F9B480" d="M696.265,638.173c-63.757,15.84-36.758,36.036-55.206,33.264c-18.451-2.771-37.134-10.79-36.544-59.644"/>
	<path fill="#001215" d="M612.281,618.114c0,0-5.869-1.291-7.766-6.321c-1.898-5.03,3.267-35.69,3.267-35.69
		s16.219,4.415,18.596,6.714C628.752,585.114,613.542,618.511,612.281,618.114z"/>
	<path fill="#001215" d="M690.804,524.203l-12.037-6.033c0,0-24.446,6.942-15.496,30.916l17.229,8.637
		c0,0,14.958,0.206,19.652-10.925C704.844,535.667,696.824,525.74,690.804,524.203z"/>
	<g id="XMLID_3_">
		<g>
			<path fill="#F9B480" d="M608.713,577.803c-4.483-5.544-10.676-52.794,17.503-55.439c7.144-0.665,12.767-3.073,17.012-6.447
				l0.159,0.175c-3.311,2.756-5.069,7.413-1.679,15.254c8.458,19.53,3.627,45.477-6.858,55.566
				c-10.138,9.758-22.303,31.3-22.351,40.266c-0.459-8.981-0.253-21.954,1.236-40.661
				C613.734,586.516,613.196,583.348,608.713,577.803z"/>
			<path fill="#FFD4AE" d="M619.278,646.977c0,0-5.449,3.057-6.732-18.897c-0.016-0.095-0.016-0.189-0.016-0.301
				c-0.016-0.174-0.016-0.364-0.032-0.538c0-0.017,0-0.048,0-0.063c0.048-8.966,12.213-30.508,22.351-40.266
				c10.486-10.09,15.317-36.036,6.858-55.566c-3.39-7.841-1.631-12.498,1.679-15.254c4.942-4.118,13.369-4.023,13.369-4.023
				c16.109,0.27,17.963,5.021,17.963,5.021c-11.31-2.836-19.087,7.824-19.515,8.411c0.159-0.935,3.295-18.485-0.982,0.031
				c-4.388,19.008,11.247,20.069,13.1,22.698c1.854,2.646-5.94,14.922-5.94,14.922c-2.598,1.299-5.734,29.352-6.779,39.521
				c-0.253,2.266-0.38,3.644-0.38,3.644c3.136,30.888-11.452,47.251-11.452,47.251s-3.438,13.732-17.947,7.396
				C624.822,660.963,616.633,654.627,619.278,646.977z"/>
			<path fill="#FFD4AE" d="M648.091,479.864c-26.437-56.485,24.298-68.112,24.298-68.112s46.981-5.275,43.56,44.891
				c-3.437,50.15-21.7,48.565-21.7,48.565s-0.523,11.881,5.813,12.419c6.336,0.522,29.557,9.758,32.472,10.818
				c2.898,1.062,24.014,13.465,21.638,38.539c0,0,10.565,32.203,8.981,38.285c-1.584,6.067,7.92-18.485,7.65-50.165
				c0,0-4.482-8.712-15.048-15.317c-10.55-6.589,3.706-16.632,4.498-17.154c0.792-0.523,14.51-4.229,20.054-0.523
				c0,0-0.254,32.473,6.336,28.766c0,0,2.376,69.427-5.274,81.576c0,0,0.792,27.72-9.235,29.051
				c-10.042,1.314-16.901-6.605-20.069-14.003c-3.168-7.381-19.008-39.33-19.008-39.33s-2.867-22.335-12.007-3.042
				c0,0-44.653-8.269-66.448-2.455c1.045-10.169,4.182-38.222,6.779-39.521c0,0,7.793-12.276,5.94-14.922
				c-1.853-2.629-17.487-3.69-13.1-22.698c4.277-18.517,1.141-0.966,0.982-0.031c0.428-0.587,8.205-11.247,19.515-8.411
				c0,0-1.854-4.752-17.963-5.021c0,0-8.427-0.095-13.369,4.023l-0.159-0.175C655.71,505.969,656.217,487.547,648.091,479.864z"/>
		</g>
	</g>
	<path fill="#F9B480" d="M763.357,605.446l-0.318,0.709c0,0-8.598,26.89-1.469,35.206c0,0-8.031-19.8-2.83-38.808
		c0,0-2.516-30.69-8.656-35.442c-6.137-4.752-27.568-38.033-24.178-41.192c0,0,29.605,9.748,28.266,41.065
		C754.172,566.984,765.139,599.515,763.357,605.446z"/>
	<path fill="#001215" d="M645.656,414.894c0,0-34.358,39.299,0,62.743c0,0-13.986,24.015-4.246,26.213
		c9.742,2.219,5.306,10.473,11.058-0.442c5.749-10.93,1.852-22.967-1.283-25.06L645.656,414.894z"/>
	<path fill="#001215" d="M685.564,408.731c0,0,0.413,7.437-3.774,17.228c-3.064,7.172-8.597,15.604-18.556,23.306
		c-23.561,18.216,1.386,42.966,1.386,42.966s-27.194-9.499-20.724-48.11c0,0,1.589-26.544,0.562-27.332
		C643.434,416,664.339,395.126,685.564,408.731z"/>
	<path fill="#001215" d="M682.456,424.315c0,0,20.875,28.973,34.453,25.807c0,0-1.695,27.013-4.486,29.083
		c3.016,5.766,31.129-68.361-36.386-74.462L682.456,424.315z"/>
	<path fill="#F9B480" d="M694.249,505.209c0-1.672-19.537-1.928-27.72-12.979c-8.183-11.052,17.647,25.359,30.341,23.72
		C696.87,515.95,694.249,511.154,694.249,505.209z"/>
	<path fill="#001215" d="M641.059,519.771"/>
	<path fill="#001215" d="M653.003,578.645c-7.326,5.871-6.945,53.116-6.945,53.116s34.256,11.212,53.526,3.604
		c0,0,10.085-6.692,13.916-20.021c43.49,1.475,3.311-80.319,7.727-91.178c0,0-3.418-1.951-6.914-3.25c0,0,16.607,49.414-2.135,51.79
		c-18.744,2.376-42.456,7.291-50.797-9.554"/>
	<path fill="#001215" d="M589.345,648.338c0,0,53.327,58.899,97.678,19.153c0,0,0.528,14.64,0,16.751
		c-0.526,2.112,71.504,16.895,89.874,44.879c18.369,27.985-24.004,78.145-24.004,78.145s-30.986,32.564-24.6,35.687
		c6.385,3.12-23.539,39.94-35.901,14.402c0,0,15.752-14.054,22.088-56.425c6.336-42.373,25.74-43.602,25.74-43.602
		s-18.611-5.502-19.404-9.066c-0.791-3.564-40.127,3.829-52.007,1.98c0,0-5.016,19.805-16.632,28.779
		c-11.617,8.978-12.144,27.984-29.304,45.939c-17.161,17.952-19.009,40.21-15.84,41.357c3.167,1.147-21.498,30.252-28.172-5.156
		c0,0,14.181-19.569,14.708-43.064c0.526-23.494,14.782-51.478,28.775-62.83c0,0-15.312,1.029-22.439-2.931
		c-7.129-3.959-44.617-20.065-41.185-55.442C562.152,661.518,584.857,652.06,589.345,648.338z"/>
	<path fill="#375154" d="M611.335,874.579c0,0,7.92-19.336-9.238-17.034c-17.161,2.301-9.241,4.413-11.617,2.301
		c-2.375-2.11-5.015,9.93,3.169,14.733s-15.841-4.175-14.521-12.356c1.32-8.184-6.6,17.425-3.959,21.914
		c0,0-1.614,7.389-0.544,8.446c1.072,1.056-1.805,7.131-0.365,8.185c1.438,1.055,13.846,15.049,25.726,15.576
		s40.126,0.528,30.358-15.576C620.577,884.664,610.018,879.016,611.335,874.579z"/>
	<path fill="#375154" d="M693.969,851.926c0,0-3.169,8.979-1.586,10.033c0,0-4.054,7.392-0.442,11.352
		c0,0-5.101,14.257,2.028,15.577c7.128,1.32,20.328,0.792,28.511,6.071c8.184,5.28,46.197,8.185,43.824-2.376
		c-2.379-10.561-6.338-14.097-19.801-18.004c0,0-10.561-11.564-13.729-13.148c-3.168-1.585,0.535-15.574-4.482-18.479
		c-5.021-2.906-13.736-0.793-16.639,1.584c-2.902,2.375-3.957,8.975-1.848,11.614C711.92,858.792,696.609,858.79,693.969,851.926z"
		/>
	<path d="M668.809,750.242c0,0,12.913-25.143-10.555-37.243c-23.467-12.1-30.103-25.278-27.866-30.326
		c2.235-5.048,14.301,28.125,36.667,26.293c22.365-1.833,11.366,33.366,33.365,33c22-0.366,25.667-1.101,35.568,5.134
		c9.9,6.233,7.699,3.667,19.799,5.134c12.102,1.466-7.799,1.554-15.566,5.095c0,0-19.965-5.236-21.053-7.616
		C718.08,747.331,673.863,753.248,668.809,750.242z"/>
	<path fill="#F9B480" d="M760.068,522.766c0,0-14.623,9.255-5.34,16.583c9.283,7.327,14.104,4.802,21.453,0.705
		c7.35-4.098,1.313-17.696,3.162-18.254C781.193,521.244,765.342,518.271,760.068,522.766z"/>
	<path fill="#0C2F33" d="M652.608,543.899h-16.513c0,0-11.086-5.951-10.294-17.609c0.791-11.657,10.822-15.881,10.822-15.881h15.984
		C652.608,510.409,628.535,530.927,652.608,543.899"/>
	<path fill="#0C2F33" d="M765.67,519.787h-15.98c0,0-10.033,4.224-10.824,15.881c-0.793,11.66,10.295,17.611,10.295,17.611h16.51
		C765.67,553.279,741.221,538.831,765.67,519.787z"/>
	<path fill="#F9B480" d="M761.035,523.867c0,0-14.623,9.253-5.34,16.581c9.283,7.329,14.104,4.802,21.453,0.705
		s1.313-17.694,3.162-18.252S766.309,519.37,761.035,523.867z"/>
	<path fill="#FFD4AE" d="M612.545,628.079c-0.838-8.347,11.816-31.078,22.304-41.167c10.486-10.092,15.316-36.037,6.858-55.567
		c-8.443-19.547,15.048-19.277,15.048-19.277c16.108,0.27,17.963,5.021,17.963,5.021c-11.626-2.915-19.53,8.443-19.53,8.443
		s3.421-19.009-0.966,0c-4.39,19.007,11.246,20.067,13.098,22.697c1.854,2.646-5.939,14.923-5.939,14.923
		c-1.318,0.659-2.78,8.258-4.037,16.9c-1.761,12.105-3.121,26.262-3.121,26.262c3.135,30.889-11.453,47.253-11.453,47.253"/>
	<g id="XMLID_8_">
		<g>
			<path fill="#0C2F33" d="M699.9,526.623c0.792,12.056-12.672,18.567-12.672,18.567c-25.509-13.09-5.808-34.584-5.808-34.584
				C687.492,509.287,699.108,514.567,699.9,526.623z"/>
			<path fill="#0C2F33" d="M687.228,545.19h-19.272c-18.744-17.424,0-34.584,0-34.584h13.464
				C681.42,510.606,661.719,532.101,687.228,545.19z"/>
		</g>
	</g>
	<ellipse fill="#001215" cx="686.62" cy="527.899" rx="12.886" ry="17.292"/>
	<g id="XMLID_9_">
		<g>
			<path fill="#0C2F33" d="M815.147,534.384c0.792,12.056-12.673,18.567-12.673,18.567c-25.509-13.09-5.808-34.584-5.808-34.584
				C802.739,517.048,814.355,522.328,815.147,534.384z"/>
			<path fill="#0C2F33" d="M802.475,552.951h-19.271c-18.744-17.424,0-34.584,0-34.584h13.464
				C796.667,518.367,776.966,539.861,802.475,552.951z"/>
		</g>
	</g>
	<ellipse fill="#001215" cx="801.867" cy="535.66" rx="12.887" ry="17.292"/>
</g>
</svg>
