<?xml version="1.0" encoding="utf-8"?>
<!-- Generator: Adobe Illustrator 18.0.0, SVG Export Plug-In . SVG Version: 6.00 Build 0)  -->
<!DOCTYPE svg PUBLIC "-//W3C//DTD SVG 1.1//EN" "http://www.w3.org/Graphics/SVG/1.1/DTD/svg11.dtd">
<svg version="1.1" id="Layer_1" xmlns="http://www.w3.org/2000/svg" xmlns:xlink="http://www.w3.org/1999/xlink" x="0px" y="0px"
	 viewBox="0 0 1400 980" enable-background="new 0 0 1400 980" xml:space="preserve">
<g>
	<rect x="0" y="0" fill="#FFFFFF" width="1400" height="980"/>
	<g>
		<g>
			<ellipse fill="#DCDDDE" cx="1165.7" cy="828" rx="205" ry="20.8"/>
			<path d="M1321.7,715.4c3-10.5-3-14.3-3-14.3c-7.9-5.9-24.9-0.7-24.9-0.7c-12.2,5-14.3,12.6-14.3,12.6c-4.8,3.2-8.9-1.4-8.9-1.4
				c-10.4-9.4-35.4,0.7-35.4,0.7c-4.4-0.4-11.8,1.9-11.8,1.9c-6.6,1.5-19.6,6.8-19.6,6.8c-5.3,2.4-19.8,5.4-19.8,5.4l-16,0
				c-21.2-0.4-30.1,19.5-30.1,19.5l-33.6,17.4c-7.1,3.5-16,3.9-16,3.9c-19.5,0.8-35.4,13-35.4,13c-14.7,9.7-26.3,14.7-26.3,14.7
				c-7.1,3-11.2,2.4-11.2,2.4c-2.5-0.6-4.3,0.3-4.3,0.3c-6.6,4-0.8,12.2-0.8,12.2c2.8,5.4,1.7,14.9,1.7,14.9c-1,6.2,2.2,8.3,2.2,8.3
				c3.5,2.2,7.7,1.7,7.7,1.7c13-0.4,12-5.4,12-5.4c6.6,0.3,9.7-2.8,9.7-2.8c1.9-1.2-0.8-2.5-0.8-2.5l-4.3-1.9c-2.8-1.4-2.4-4-2.4-4
				c-0.4-7.9,1.2-10.7,1.2-10.7c4.2-4.4,13.8-5.8,13.8-5.8c23.9-4.4,32.9-9.3,32.9-9.3c6.2-3.9,12.1-2.9,12.1-2.9
				c5.6,2.1,20.6-2.1,20.6-2.1c33.3-0.8,54.1-19.9,54.1-19.9c13.7-3.2,19.7-6.9,19.7-6.9c8.9,0,16-3.7,16-3.7
				c6.7-2.5,17.8-5.2,17.8-5.2c6.9,10.4,18.3,7.6,18.3,7.6c1,4.8,1.5,23.2,1.5,23.2c-1.2,8.6,1.7,20.1,1.7,20.1l4,15.2
				c0.3,5.9,6.5,4.9,6.5,4.9l4.3,0.2l3.3,11.3c1.9,6.2,5.7,5.9,5.7,5.9l12.9,0.2l13.5,1c2.1,0.2,3.6-0.7,3.6-0.7
				c3.1,0.3,3.9-0.6,3.9-0.6c3.7-0.6,1.5-2.1,1.5-2.1l-6.9-3.8c-2.1-1.2-6.4-1.7-6.4-1.7h-13.8c-5.8,0.1-6.6-6.7-6.6-6.7l-0.1-4.2
				c1.2-0.6,3.4-0.1,3.7-0.1s3,1.2,3,1.2c1.5,0.4,2.5-0.3,2.5-0.3c0.8-0.8,0.4-1.5,0.4-1.5c0.6,0,0.6-1.3,0.6-1.3
				c-0.1-1.8-3.7-2.8-3.7-2.8l-6.8-0.8l1.2-21.9c0.6-5.4-0.8-11.1-0.8-11.1c-1.1-2.5-0.7-7.2-0.7-7.2l1-14.6
				c1.2-1.1,2.5-5.7,2.5-5.7c0.8,6.4,7.6,10.4,7.6,10.4c-1-0.8-1.7-4.7-1.7-4.7c0.8,2.3,5.6,5.6,5.6,5.6c-3.2-3.8-3.4-12.3-3.4-12.3
				c1,1.8,3,2.6,3,2.6c-5-5.7-5.1-22.9-5.1-22.9l2-0.1l4.8,6.6c2.2,3.1,5.1,0.5,5.1,0.5c5.5-2.1,8.6-1.3,8.6-1.3c3,4.5,5-0.2,5-0.2
				c1.9-3.3,5.2-4.5,5.2-4.5c5.3-1,8-3,8-3C1327.3,726,1321.7,715.4,1321.7,715.4z M1255.5,814.2c0,0,0.7-13.5,0.4-22.3
				c-0.2-2.7-0.4-4.6-0.4-4.6c0.2,1.2,0.3,2.8,0.4,4.6c0.6,7,1.7,20,2.4,22.6L1255.5,814.2z"/>
		</g>
		<g>
			<ellipse fill="#DCDDDE" cx="234.3" cy="587" rx="205" ry="20.8"/>
			<path d="M176.5,541.6c0,0-6.4,0.6-10.6,0c0,0-3.1-0.3-7.7,2.2c0,0-9.5,5.9-33.6,10.3c0,0-15.7,1.8-19.8,11.1c0,0-2.8,7.4-2.6,9.5
				c0,0,3.9,0.3,4,1.3c0,0,0.4,0.3-0.3,1.5c0,0,0.6,0.3,0.4,1.8c0,0,0.7,0.6,0.4,1.6c0,0,2.7,3.2-5.2,4.2h-7.3c0,0-9.5-1.2-3.2-12.6
				c0,0,3-6.9-1.4-11.1c0,0-9.5-10,1.2-13.6c0,0,2.4-0.6,4.7-0.1c0,0,2.4,1.4,9.5-1.9l19.9-8l6-2.5c0,0,13.5-8.9,34.9-9.1
				c0,0,2.2-0.6,4.2-1.8l12.5-7.2c0,0,6.8-11.9,12.6-7.9l15.5-5.8c0,0-0.8-1.5,1.9-2.6c0,0,2.8-1.6,4.2-10.2c0,0,2-13.7,21.5-18.3
				c0,0,7.7-0.8,14.3,0c0,0,13.7,1.8,23.4-1.5c0,0,10.1-5.4,36.7-5.8c0,0,9.5-0.1,14.5,3c0,0,9.8,3.3,12,5.8c0,0,2.3,1.7,5.4-1.8
				c0,0,10.1-11.5,25.3-7.9c0,0,16,5.3,12.3,22.6c0,0-1,5.9-6.3,10.2c0,0-7.3,4.9-13.8,7c0,0-2.2,1.5-4.1,1.1c0,0-2.7-0.6-3.9,1.1
				c0,0-5.7,15.4-3.6,36.3c0,0-2.2-4.2-2.6-7.5c0,0-1,7.2-0.1,10.4c0,0-3.8-5.2-3.9-12.6c0,0-1,6.4-0.4,8c0,0-3.1-3.5-2.6-11.4
				c0,0-2.1,2.7-1.9,5.7c0,0-3-8,1.3-16.9c0,0,2.7-9.1,2.7-11.8l-6.4-0.8c0,0-2.8-0.3-3,1.9l-5.1,22c0,0-1.5,8.1,0.3,14
				c0,0,3.1,12.1,3.7,30.1l6-0.6c0,0,4.3,0,6.1,2.2c0,0,1.1,1.2-0.7,1.5c0,0,0.2,1.2-1,1.2c0,0-0.5,0.8-2.1,0.7l-8.3,0.3
				c0,0,3.1,7.3,5,8l12.7-0.9c0,0,7-0.1,11,2.4l6.5,4c0,0,2.4,1.2-0.3,2.5c0,0-0.8,0.9-2.6,1c0,0-0.2,1.6-3.2,1.2l-10.2-1.7
				c0,0-9.5-0.3-14.4,0.8c0,0-5.4,1.9-7.7-3.4l-8.2-15c0,0-6.6,0.8-6.8-10l-1.5-19.5c0,0-1.2-4.2-0.6-8.1c0,0-0.8-5.4-1.7-9.8
				c0,0-4.8-10.8-6-15.5c0,0-10.1,1.2-18.1-6.1c0,0,6.9,9.3,2.6,15.6c0,0-3.8,7-16,6c0,0-5.5-0.5-13,0c0,0-13.9,1.3-25.7-3.6
				c0,0-3.2,0.3-5.6,1.8c0,0-13.2,10.2-43.1,11.8l-2.1,4.8c0,0-1.8,4.6-5,1.9c0,0-1.2-1.3-0.3-3
				C178.2,543.9,176.3,543.5,176.5,541.6z"/>
		</g>
		<g>
			<ellipse fill="#DCDDDE" cx="234.3" cy="828" rx="205" ry="20.8"/>
			<path d="M76.5,821.6c0.1-0.8-1.9-12-4-15.5c0,0-5.7-11.3,7.5-12.2c0,0-0.4-4.4,8-5.1c0,0,7.5,1.2,20.3-1.8l17.6-3.9
				c0,0,20.5-6.6,39-2.9c0,0,10,0.8,18.1-2.3l34.2-11.4c0,0,8.5-17.2,37.8-9.1l4.4-0.2l0.8,1c0,0,19-2.4,26-4.4c0,0,9.9-3,23.4-4.1
				c0,0,20.1-5.8,25.7,0c0,0,7.3,0.6,11,1.7c0,0,2.9,0.6,5.2-0.4c0,0,1.2-9.6,10.7-11.6c0,0,10.4-9.7,26-3.9c0,0,11.5,4.2,7.6,16.3
				c0,0,5.8,14.7-5.7,16.3l-2.9,2.9c0,0-1,0.7-4.6,0.7l-3.8,5.2c0,0-1.3,2.9-4.5-0.4c0,0-4.8,0.4-7.7,1.7c0,0-2.4,2.3-5.4-0.6
				l-4.3-6c0,0-1.3-0.5-3.7-0.3c0,0-0.8,13.8,3.1,21.4c0,0-1.9-1.1-2.7-2.4c0,0,1.2,7.8,3.2,10.7c0,0-1.8-0.7-2.6-1.9
				c0,0,0.2,3.8,1.7,5.4c0,0-3.3-0.9-3.7-2.6c0,0,0,2.2,0.8,2.8c0,0-7.3-0.3-8-15.4l-1.6,2.8c0,0-0.8,2.4-0.6,7.4
				c0,0,0.3,7.3,0.2,8.9c0,0-1.7,2.1,20.7,3.3l5.1-1.9c0,0,6.8-3.3,9.8-2.1c0,0,4.6,2.8,5.8,6.1c0,0,1.5,1.2,4.3,0.3
				c0,0,3-2.2,4-0.7c0,0,1.4,1.1,0,3.9c0,0,3.5,4.9,1.9,12.5c0,0-0.5,5.3-15.3,2.4c0,0-3.8-0.6-18.3,0.9c0,0-19.2,2.4-27.4,1.3
				c0,0-9,0.9-8.4-5.3c0,0-0.9-6.5-1-9.5c0,0-10.4,1.9-9.4-6.1c0,0-2.1-8.7-1.7-15.9c0,0-8.4-0.6-12-7.5c0,0-1.5-1-4.6-0.8
				c0,0-19.6,2.9-21.3,3.6c0,0-8.4,2.5-14.5,1.8c0,0-23,1.7-33.1,10.9c0,0-1.2,0.8-2.6-0.3c0,0-32.5,4.9-42.9-0.3
				c0,0-18.3,0.1-23.9-2.7c0,0-5.1-0.4-8.2,0.4c0,0-15.9,4-30.8,1.8c0,0-14.7-0.1-18.5,1.8l-3.2,11.1c0,0-1.5,2.6,2.2,3.5l3.5,0.8
				c0,0,3.3,3.3-2.5,3.6c0,0,1,8.1-13.8,5.9c-1-0.1-7.1-0.7-7.1-0.7S75.4,831.1,76.5,821.6z"/>
		</g>
		<g>
			<ellipse fill="#DCDDDE" cx="1165.7" cy="587" rx="205" ry="20.8"/>
			<path d="M1039,552.7c0,0,35.9-11.8,44-17.6c0,0,14.7,0,22.4-3.5c0,0,31.5-2.3,43.8-10.8c0,0,10.5-3.3,14.7-9.2c0,0,1.8-1.4,4,0
				c0,0,5.5,2.6,8.2,3c0,0,24,8.6,37.3,10.9c0,0,1.7,21.6,27.4,13.5c0,0,2.1,17,6.6,25.1l1.2,3.1c0,0-0.2,3.9,5.4,4.6l4.8,10.4
				c0,0,0.8,5.2,6.6,4.8c0,0,28.2-1,36.7-1.9c0,0,8.9-1,12.5-0.6c0,0,12.7,1.7,13.7-2.4c0,0,1.2-2,0.7-4.4c0,0,0.7-2.6-0.4-4.2
				c0,0-0.1-4.5-2.8-5.4l-1.5-0.1c0,0,0.2-2.1-5.5-1.9l-4.6-4.1c0,0-2.8-2.7-12.5,0.2c0,0-6.2,1.8-24.4-0.4c0,0-3.9-0.6-3-3.3
				c0,0,1.8-3.2,0-8.9c0,0-3-13.3-1.2-19.5c0,0,1.1-1.5,2.9,1l4.6,6.4c0,0,1.4,1.9,4.7-1.1l6.5-1c0,0,0.7,4.6,5.5-0.8
				c0,0,4.4-4,8.6-5.4c0,0,1.2-0.3,2.9-1.8c0,0,7.1,0.1,6.6-10.8c0,0,0.3-13.8-6.9-20.3c0,0-12.3-7.2-25.6,1.4c0,0-10,0.3-13.1,10.1
				l-2.2-0.3c0,0-6.5-7.6-23.5-10.7l-5.9-1.9c0,0-6.6-5.7-15.4-5.5c0,0-25.5-6.7-35.5-11.9c0,0-19.3-16.8-41.3-3.3l-8.6,4.3
				c0,0-0.4,1.1,0,5.5c0,0-19.4,10.9-37.5,23.4c0,0-3.3,3.7-19.1,6.8c0,0-22.2,2.3-41.7,19.3l-11.3,8.2c0,0-2.2,2-6.1,0.7
				c0,0-7.5-1.4-10.8,5.4c0,0-14.1,1.9-6.5,14.4c0,0,5,9,5.1,16.3c0,0-0.7,6.2,7.9,6.1c0,0,3.2,0.8,5.1-1.4c0,0,2.4,0.3,4.8-1
				c0,0,2.6,0.1,3.7-1.7c0,0,1.5,0,2.1-2.6h2.8c0,0,3.6-0.4,1.9-3.5c0,0-1.4-1.1-3.9-1.1c0,0-6.1,1.4-3.6-4.8l2.6-8.6
				C1033,559.8,1034.4,554.3,1039,552.7z"/>
		</g>
		<g>
			<ellipse fill="#DCDDDE" cx="1165.7" cy="345.8" rx="205" ry="20.8"/>
			<path d="M1101.1,283.8c0,0,2.2,17.1-1.9,28.2c0,0-1.7,9,0,20.3c0,0,2.5,0.6,2.5,6c0,0-0.1,3.8,1.6,6.5c0,0,3.8,5.7-11.7,5.7
				c0,0-7.1-1.1-16,0c0,0-10.3,2.4-16.5-2.7c0,0-4.8-4.6,2.2-6.3c0,0,11.9-1.3,14.3-4.4l2.7-4c0,0,1.6-6.2,6.3-4
				c0,0,2.4-8.7-0.2-29.6c0,0-3.2-21.7-2.1-31.7c0,0,1.3-15.2,14.1-11.2c0,0,28,6.5,47.2,18.2c0,0-2.3-24.9-1.3-33.7
				c0,0,0.4-7-5.1-10.5c0,0-14.1-15.2-17-43.2c0,0-1.2-13.4-10.7-16.4c0,0-7.1,0.1-11.2-4.2c0,0-3.2-3.1,7.5-12.1
				c0,0,4.4-4.6,6.3-11.7c0,0,3.8-8.7,7.6-10.1c0,0,4.4-2.7,7.6-1c0,0,3.8,1.1-0.7,9.7c0,0-3.1,8.1-0.5,12.8c0,0,3.8,8.1,0,9
				c0,0,1.4,13.5,9.5,26.8c0,0,8.3,18.5,14.7,27.8c0,0,8.8,7.5,9.1,15.4c0,0,11.6,26.8,16.6,45.6c0,0,8.1,1.2,18.3-6.9
				c0,0,3.3-13.5,19.5-17.8c0,0,13.3-2.2,16-12.2c0,0-6.4-2-8.9-4.7c0,0-2.5-1.7-0.4-4.8l3-4.1c0,0-4.1-2.7,2.4-5.2
				c0,0,4.3-4.3,6.2-7.1c0,0,1.9-6.5,6.5-7.4c0,0,15.7-6.5,23.3,8.4c0,0,2.5,4.8,1.3,12.8l1.2,1.8c0,0,8-1.1,5.9,15
				c0,0-2.9,12.8,0.3,21.9c0,0,5.1,11.6,0,18.3c0,0,1.2-10.5-3.4-15.9c0,0-11.2-15.7-7.5-29.8c0,0,0.7-3-1.2-3.8
				c0,0-4.8,7.2-13.1,7.2c0,0-3.8,4.9-1.1,9.3c0,0,8.9,10.9,3.2,35.4l-0.9,10.4c-0.1,1.7,0,3.5,0.5,5.2c0.4,1.7,0.8,4,0.4,5.6
				c0,0,4.3,20.7,7.1,35.8c0,0,0.6,5.9,10.3,6.5h6c0,0,2.2,0.3,2.2,1.2c0,0,1.4,0.9-0.2,1.6c0,0,0.6,1-1.6,1.2c0,0,0,1.3-2,1.4
				l-9.2-0.1c0,0,0.7,1.1-4.1,1l-4.5-0.3c-2.1-0.1-4.2-1.2-5.2-3.1c-0.6-1-0.3-2.4,0-3.9c0.3-1.7-0.1-3.3-0.3-5
				c-0.2-1.2-0.4-2.6-0.9-4.1l-6.7-23.9c0,0-3.7-7.6-3.5-11.2l-2.6-16c0,0-15.7,6.2-33.7,28.7l-15,16.2c0,0-15,14.3-21.4-12.4
				c0,0-20.7-5.3-29.9-18C1132.2,306,1108.7,290.1,1101.1,283.8z"/>
		</g>
		<g>
			<ellipse fill="#DCDDDE" cx="700" cy="587" rx="205" ry="20.8"/>
			<path d="M890.8,522.8c2.4-3-1.7-2.5-1.7-2.5c-1.2-1.4-3.6-0.2-3.8,0c-0.2,0.2-13.5,7-13.5,7c-5,1.8-1.6-3.4-1.6-3.4
				c2-2.1,1.9-4.3,1.9-4.3c2.7-2.2-0.3-2.2-0.3-2.2l-5.7,2.2c-2.1,0.6-1.5-0.6-1.5-0.6l8.5-4.3c3.5-1.7,1.5-2.8,1.5-2.8
				c2.7-2.5-1.1-2.1-1.1-2.1c-0.1-1.9-2.5-1.4-2.5-1.4c-3.9,0.7-13.4,4.8-13.4,4.8c-1.3,0.8-0.8-0.5-0.8-0.5l2.6-3
				c1.7-1.7,0.5-3.1,0.5-3.1c-0.5-0.8-2.1,1.1-2.1,1.1l-3.8,3.5c-2.4,2.1-2.2,5.2-2.2,5.2c-2,6.1-5.5,6.8-5.5,6.8l-18.9,1.8
				c-6.6,0-15.5,2.1-15.5,2.1c0.4-5.1-1.6-7.6-1.6-7.6c-10.9-17.3-26.9-8.7-26.9-8.7c-2.4-4.2-7-2-7-2
				c-13.8,9.7-11.1,19.6-11.1,19.6c-1.3,1.1-2,3.5-2,3.5c-2.4,0.9-2.9,4.3-2.9,4.3c-13.5,4.4-38.6,19.3-38.6,19.3
				c-16.3,6.6-20.7,1.2-20.7,1.2c-2.2-2.4-8.6-5.4-8.6-5.4c-13.2-5.6-31.3,3.2-31.3,3.2c-7.6-2-31.6-7.1-31.6-7.1
				c-9.3-1.2-13.7-11.5-13.7-11.5c-6.9-11.5-17.6-16.2-17.6-16.2l-19.3-12c-6.1-2.2-3.9-12.5-3.9-12.5c5.4-12.6-12.4-7.2-12.4-7.2
				c-3.9,1.2-9.3,0-9.3,0c-9.2-0.2-18.7,6-18.7,6c-7.6,5.9,0.4,6.4,0.4,6.4c9.8-0.6,13.6,3.7,13.6,3.7c-2.8-0.1-8.7,1.2-8.7,1.2
				c-4.7,1.1-14,1.5-14,1.5c-14.3,2.4-17.4,13.1-17.4,13.1c-1,5.9,7.7,3.3,7.7,3.3c4.2-0.6,7.5,0.4,7.5,0.4
				c3.8,2.1,12.6,5.4,12.6,5.4c6.1,6.2,8.8,1.1,8.8,1.1c9.7,1.5,20.7,8.3,20.7,8.3c9.5,7.7,27.1,17.1,27.1,17.1
				c5.5,3.4,9.1,8.4,9.1,8.4c2.8,6.2,11.5,9.2,11.5,9.2c29.1,16.6,49.2,19.3,49.2,19.3c27.9,2.9,55.6,1.2,55.6,1.2h0.9
				c0,0,0,0,22.3-2.2c22.3-2.2,27.1-19.8,27.1-19.8l6.7-8.2c3.4-2.5,6.2-0.8,6.2-0.8c17.6,2.2,36.4-1.1,36.4-1.1
				c9.7,0.4,16.8-3.9,16.8-3.9l34.7-14.6c7.3-1.6,13.2-7.6,13.2-7.6c9.5-7.3,6.1-8.4,6.1-8.4C892.9,524.1,890.8,522.8,890.8,522.8z
				 M562.5,524.1c-4.7-1.7-6.4-3.8-6.4-3.8l-0.5-9.5c5.1,4.2,5.6-0.6,5.6-0.6c16.9,5.6,31.2,24.3,31.2,24.3
				C587.4,532.7,562.5,524.1,562.5,524.1z M862.9,532.5c-0.2,3.1-2.7,4.4-2.7,4.4c-6.1,2.9-23.8,5.8-23.8,5.8c-13.6,2-17.9,4-17.9,4
				c-9.1,4.3-19.6,2.2-19.6,2.2c0.2-2,1.3-1.8,1.3-1.8c2.8,0.6,3.4-1,3.4-1l0.7-3.2c2.3,0.4,6.3-1.2,6.3-1.2l43-13.6
				c6.7-1.6,13.2-6.5,13.2-6.5C864.4,524.3,862.9,532.5,862.9,532.5z"/>
		</g>
		<g>
			<ellipse fill="#DCDDDE" cx="700" cy="828" rx="205" ry="20.8"/>
			<path d="M576.1,826.7c0,0,1.5-8.7,11.9-14.4c0,0,8.3-5.5,12.1-8.7c0,0,7.6-9.5,11.3-3.4l5.5,9.5c0,0,2.3,3.7,17.7,0
				c0,0,23-4.9,35.4,1.5c0,0,1.9-8.9-2.5-21.5c0,0-4.5-15.3-4.2-26.5l-4.3-2.1c0,0-2.6-0.9,0.8-4.3c0,0,1.3-6.9,0.9-11.4
				c0,0-0.9-9.3,7.1-13.4c0,0,3.9-7.8,31.8-7.1c0,0,23.1,2.7,39.1-6.2c0,0,7.2-3.7,22.8-4.9c0,0-4.7-0.5-5.9-3.2c0,0,5,1.4,7.7-0.8
				c0,0,3.9-2,7.8,0c0,0,3.2-0.1,6.2,0.3c0,0,2.4-2.6,7.3-4.5c0,0,0.6-7.3,10-10.8l6.8-2.3c0,0,5.9-2.5,8.3,4.7
				c0,0,15.9-0.6,17.8,15.7c0,0,3.4,14.6-9.3,19.7c0,0-2,1.1-4.5,1.6c0,0-2.5,1.7-3.6,4.1c0,0-1.7,4.2-4.8-0.7l-6.2,1.9
				c0,0-6,4.3-9.1-4.9c0,0-0.5-2.6-7.1-0.6c0,0,3.4,8.2-2.3,22.3c0,0-3.4,18.4-2.5,31.4c0,0,1,7.4-1.4,17c0,0-5,14-2,15.1l13.5,1.9
				l5.9,0.9c0,0,1.8,0,1.7,1.2c0,0,2.8,1.8-1.4,2.1c0,0,0.9,1.8-5.5,0.9l-6.3-0.5c0,0-1.4,2.7-9.8,0.1l0.1,4.3
				c0,0,17.2,1.8,21.2,2.6l5.7,1.1c0,0,2.8,0.9,0.8,2.6c0,0,0.3,1.3-2.6,1.6c0,0-0.5,0.8-2.1,0.8c0,0-0.7,1.1-3.8,0.9l-18.9-0.6
				c0,0-5.3,1-7.5-5.2c0,0-5-22.9-5-36.1c0,0,0.2-7.6,0.9-11.7c0,0-0.9-18.9-2.1-25.9c0,0-46.1,16.7-63.3,18.5c0,0,1.1,33.7-2.1,46
				c0,0-0.6,12.1-16.1,11.9c0,0-13.8-1.1-23.4-1.7c0,0-16.1-0.9-24.8-4c0,0-14.2-2.5-21-0.4c0,0,1.4,6.4-6.9,4c0,0-5.7-4.8-15.2-2.2
				c0,0-7.5,7.1-13.6,3.5C573,836.3,569.6,835.1,576.1,826.7z"/>
		</g>
		<g>
			<ellipse fill="#DCDDDE" cx="700" cy="345.8" rx="205" ry="20.8"/>
			<path d="M597.7,191.6c0,0,5,6.8,5.4,21.4c0,0,0.6,18.3,2.6,26.9c0,0-4.1,19.9,6.8,24.2c0,0,28.1,14.6,59.2,14c0,0-0.3,2,1.5,1.9
				c0,0-0.6,16.7,4.6,33.3c0,0,1.8,4.8,0.8,12.8c0,0-16-2.2-30,0c0,0-9.8,1.5-21.7,1.4c0,0-2.1-6.4-5-8.6c0,0-1.7-5.5-5.9-2.3
				l-8.1,6.9c0,0-5,5.2-10.2,6c0,0-11.6,4.7-11.3,15.6c0,0,1.4,4.7,7.1,1.1c0,0,7.6-6.3,15.8-3.8c0,0,9,3.3,8.5-2.7
				c0,0,19.2-1.4,31.1,1.2c0,0,16.9,2.6,22.8,2c0,0,18.1,6.9,25-2.3c0,0,8-12.9,7.3-44.2c0,0,1.3-0.1,3.1-2.1c0,0,13.8,1.2,25.7-5.3
				c0,0,26.8-4.4,33-11.6c0,0-0.7,13.8,0,24.9c0,0-0.4,20.5,2.8,33.4l2.6,13c0,0,0.4,5.9,6.7,6.4h22.7c0,0,1.1,0,2.2-1.3
				c0,0,2.7,0.2,2.9-1.4c0,0,3.3-1.6-1-2.3c0,0-1.7-1.7-5.9-1.4l-14.5-0.4c0,0-7.7,1-6.2-5.3c0,0,1-0.4,3,0.1c0,0,5.5,2.5,7.1,0.1
				l10.5-0.2c0,0,1.5-0.4,1-1.5c0,0,2,0.2,1.6-2c0,0,0.1-0.7-1.9-0.9c0,0,0.3-0.8-1.8-0.9c0,0-12.9-1.2-19.6-1.4
				c0,0,1.2-11.1,2.5-16.8c0,0,2.8-8.2,0.6-16.5c0,0,1.6-18.3,0.3-25.9l3.1-9.6c0,0,3.3-10.2,0-13.7c0,0,2.7-1.5,7.8-1.6
				c0,0,2.6,10.2,9.3,6c0,0,4.1-1,6.3-0.7c0,0,0.6,5.2,6.4-1.8c0,0,14.1-2.8,16-14.1c0,0,5.5-20.1-16-22.8c0,0-2.6-8.9-11.6-5.2
				c0,0-7.8,2.3-11.6,10.1c0,0-5.7,1.9-6.7,5.3c0,0-2.6,2.5-9.3,0.5c0,0-7.1-2.4-12.9,3.7l-1.5,1.4c0,0-20.1,3.7-27.4,9
				c0,0-12.2,10.1-32.3,1.4c0,0-12.4-8.9-29.2,1.3l-5,2.2c0,0-0.9,0.2-0.9,0.8c0,0-27.3-2.3-35.9-2c0,0-8.7,0.2-6.9-5
				c0,0,2-16.4-6.2-32.9c0,0-8.6-21.9-8.4-29.3c0,0,2.3,0.4,0.8-5.5l-1.1-6c0,0,0.6-6.1-4.2-5.4c0,0-8.9,3.4-16.4,4.2
				c0,0-10.5-1.2-18,11.9c0,0-3,6,2.1,6.2c0,0,4.2,0,7.6-2c0,0,9.4,3.2,13.5,2.5C593.1,186,591.1,194.3,597.7,191.6z"/>
		</g>
		<g>
			<ellipse fill="#DCDDDE" cx="234.3" cy="345.8" rx="205" ry="20.8"/>
			<path d="M296.6,248c1.1-4.2-1.5-4.3-1.5-4.3l-6.2-1.9c-3.2-2.3-13-15.8-13-15.8c2.4,0.9,3-0.9,3-0.9c2.7-0.1,3.2-3,3.2-3
				c-3.9,3-5.5-1.9-5.5-1.9c2,0.7,3.7-1.6,3.7-1.6c-3.8,1.1-4.6-4.6-4.6-4.6c3.4,1,5.6-3,5.6-3c-3,1.8-5.5-1-5.5-1
				c2.7-0.5,3.7-2.5,3.7-2.5c-3.7,2.5-9.2-3.7-9.2-3.7c-11.2-13.4-12-41.2-12-41.2c2.4-21.4-14.1-22.1-14.1-22.1l-3-0.4
				c-2.1-5.5-10.1-7.9-10.1-7.9c-19.4-0.9-22.6,10.2-22.6,10.2c-2.1,4.2-1.4,10.1-1.4,10.1c0.1,2.4-0.2,3.6-0.2,3.6l-2.2,4.5
				c-1.9,2.9,1.1,2.8,1.1,2.8h2l0.6,0.9c-1.1,2.4,1.1,2.1,1.1,2.1l0,1.1c-1.5,2.8,0.5,2.4,0.5,2.4c0.8,0.3,1.1,1.1,1.1,1.1
				c-0.5,6.4,6.7,3.8,6.7,3.8c2.8-1.2,4.4,0.7,4.4,0.7l3.6,3.8c-0.9,0.3-5.1-0.5-5.1-0.5c-5.5-0.8-14,2.4-14,2.4
				c-3.8,1.2-10,2.1-10,2.1c-5.4,0.3-9.4,1-9.4,1c-5.6,1.2-15.3,0.1-15.3,0.1c-9.3-0.6-20.9,2.5-20.9,2.5
				c-9.3,2.9-18.1,3.3-18.1,3.3c-2.8,0-3.9,0.5-3.9,0.5c-1.5,0.5-2.4,0-2.4,0l-3.2-2.9c-1.1-0.8-2.4-0.5-2.4-0.5
				c-0.9-0.8-2.6,0-2.6,0c-1.5,0.1-4,2.8-4,2.8c-2.1,0.9-2.7,3.6-2.7,3.6l-1.3,2.5c-1.9,3.3,0.8,2.2,0.8,2.2
				c0.5,3.5,3.1,1.6,3.1,1.6c0.8,1.3,1.8,0.7,1.8,0.7c0.5,1.2,5.8,3,5.8,3c3.6,4.5,9.7,1.5,9.7,1.5c3.5-2.1,11.8,0,11.8,0
				c11.5,2.7,21.1,2.8,21.1,2.8l9.5-0.3c8.9-0.9,18.1-0.5,18.1-0.5c14.4,2.4,26.1-1.1,26.1-1.1c2.6-0.6,4.6,0.8,4.6,0.8
				c-5.5,23.5,9.2,23.5,9.2,23.5c1.1,3,2.8,2.7,2.8,2.7c3.2,9.3,11.5,13.2,11.5,13.2c5.2,3,9,7.4,9,7.4c-20.4-3-36.2,0.5-36.2,0.5
				c-4.2,0.3-8.3,3.3-8.3,3.3c-3.4,2.4-3,7.2-3,7.2c-0.7,7.2,7.2,17.2,7.2,17.2c1.6,6.4,12.6,23.9,12.6,23.9c2.7,3.6,5.1,10,5.1,10
				c2.4,5.9,0.6,8.8,0.6,8.8c-3.9-2.2-5.4,4.6-5.4,4.6c-3.4,3.1-17,6-17,6c-5.7,2.2-0.8,5.2-0.8,5.2c-4.9,1.5-3.4,3.5-3.4,3.5
				c5,7.2,20.6,6.2,20.6,6.2h28.7c5.7-0.8,4.8-3.5,4.8-3.5l-1.7-2.5c0.8-4.2-0.8-9.1-0.8-9.1c-0.1-3.9-3.7-4.6-3.7-4.6
				c-5-9.7-8.2-27.8-8.2-27.8c-1.7-11.8-8.4-22.2-8.4-22.2c24.6,12.3,40.3,11.1,40.3,11.1c25.4,1.4,27.8-12.2,27.8-12.2
				C314.5,260,296.6,248,296.6,248z M244.4,144.2c1.4,2.2,1.1,3.6,1.1,3.6c-0.4-0.9-2.4-2.2-2.4-2.2L244.4,144.2z M239.6,164.1
				c4-2.7,4.9-9,4.9-9c-1,9.5,3.3,24.1,3.3,24.1C245,176.9,239.6,164.1,239.6,164.1z"/>
		</g>
	</g>
</g>
</svg>
