<svg width="85" height="92" viewBox="0 0 85 92" fill="none" xmlns="http://www.w3.org/2000/svg">
<g clip-path="url(#clip0)">
<path d="M84.4471 82.8447C84.4471 85.637 65.543 92 42.2236 92C18.9041 92 0 85.637 0 82.8447C0 80.0524 18.9041 81.8882 42.2236 81.8882C65.543 81.8882 84.4471 80.0524 84.4471 82.8447Z" fill="#3F3D56"/>
<path opacity="0.1" d="M84.4471 82.8447C84.4471 85.637 65.543 92 42.2236 92C18.9041 92 0 85.637 0 82.8447C0 80.0524 18.9041 81.8882 42.2236 81.8882C65.543 81.8882 84.4471 80.0524 84.4471 82.8447Z" fill="black"/>
<path d="M12.0249 45.677C13.0059 45.677 13.8013 44.8817 13.8013 43.9006C13.8013 42.9195 13.0059 42.1242 12.0249 42.1242C11.0438 42.1242 10.2485 42.9195 10.2485 43.9006C10.2485 44.8817 11.0438 45.677 12.0249 45.677Z" fill="#F982C6"/>
<path d="M19.8137 60.2982C20.7948 60.2982 21.5901 59.5028 21.5901 58.5218C21.5901 57.5407 20.7948 56.7454 19.8137 56.7454C18.8326 56.7454 18.0373 57.5407 18.0373 58.5218C18.0373 59.5028 18.8326 60.2982 19.8137 60.2982Z" fill="#F982C6"/>
<path d="M13.8012 56.6088C14.7823 56.6088 15.5776 55.8134 15.5776 54.8324C15.5776 53.8513 14.7823 53.056 13.8012 53.056C12.8202 53.056 12.0248 53.8513 12.0248 54.8324C12.0248 55.8134 12.8202 56.6088 13.8012 56.6088Z" fill="#F982C6"/>
<path d="M14.3678 80.0464C14.3364 79.9952 13.597 78.7606 13.3407 76.1969C13.1056 73.8448 13.2567 69.8802 15.3128 64.3499C19.208 53.8732 14.4152 45.4199 14.3662 45.3357L14.6027 45.1985C14.6151 45.2199 15.8518 47.3751 16.5824 50.807C17.5478 55.357 17.1962 60.0879 15.569 64.4452C11.6805 74.9041 14.5714 79.8552 14.6011 79.9041L14.3678 80.0464Z" fill="#CFCCE0"/>
<path d="M12.8447 44.8572C12.4663 44.8572 12.0965 44.745 11.7819 44.5347C11.4673 44.3245 11.2221 44.0258 11.0773 43.6762C10.9325 43.3266 10.8946 42.942 10.9684 42.5709C11.0422 42.1998 11.2244 41.8589 11.492 41.5914C11.7595 41.3238 12.1004 41.1416 12.4715 41.0678C12.8426 40.994 13.2272 41.0319 13.5768 41.1767C13.9263 41.3215 14.2251 41.5667 14.4353 41.8813C14.6455 42.1959 14.7577 42.5657 14.7577 42.9441C14.7572 43.4513 14.5554 43.9376 14.1968 44.2962C13.8381 44.6548 13.3519 44.8566 12.8447 44.8572ZM12.8447 41.3044C12.5204 41.3044 12.2033 41.4005 11.9337 41.5807C11.664 41.7609 11.4539 42.017 11.3298 42.3166C11.2056 42.6162 11.1732 42.9459 11.2364 43.264C11.2997 43.5821 11.4559 43.8743 11.6852 44.1036C11.9145 44.3329 12.2067 44.4891 12.5248 44.5524C12.8429 44.6156 13.1726 44.5832 13.4722 44.459C13.7718 44.3349 14.0279 44.1248 14.2081 43.8551C14.3883 43.5855 14.4844 43.2684 14.4844 42.9441C14.4839 42.5094 14.311 42.0926 14.0036 41.7852C13.6962 41.4778 13.2794 41.3049 12.8447 41.3044Z" fill="#CFCCE0"/>
<path d="M18.4472 51.2795C19.4283 51.2795 20.2236 50.4842 20.2236 49.5031C20.2236 48.5221 19.4283 47.7267 18.4472 47.7267C17.4662 47.7267 16.6708 48.5221 16.6708 49.5031C16.6708 50.4842 17.4662 51.2795 18.4472 51.2795Z" fill="#CFCCE0"/>
<path d="M14.621 55.7889C14.2427 55.7889 13.8728 55.6767 13.5582 55.4664C13.2436 55.2562 12.9984 54.9575 12.8536 54.6079C12.7088 54.2583 12.671 53.8737 12.7448 53.5026C12.8186 53.1315 13.0008 52.7906 13.2683 52.5231C13.5359 52.2555 13.8767 52.0733 14.2478 51.9995C14.6189 51.9257 15.0036 51.9636 15.3531 52.1084C15.7027 52.2532 16.0015 52.4984 16.2117 52.813C16.4219 53.1276 16.5341 53.4975 16.5341 53.8758C16.5335 54.383 16.3318 54.8693 15.9731 55.2279C15.6145 55.5866 15.1282 55.7883 14.621 55.7889ZM14.621 52.2361C14.2967 52.2361 13.9797 52.3322 13.71 52.5124C13.4404 52.6926 13.2302 52.9487 13.1061 53.2483C12.982 53.5479 12.9495 53.8776 13.0128 54.1957C13.0761 54.5138 13.2322 54.806 13.4616 55.0353C13.6909 55.2646 13.9831 55.4208 14.3011 55.4841C14.6192 55.5473 14.9489 55.5149 15.2486 55.3907C15.5482 55.2666 15.8043 55.0565 15.9844 54.7868C16.1646 54.5172 16.2608 54.2001 16.2608 53.8758C16.2603 53.4411 16.0874 53.0243 15.78 52.7169C15.4726 52.4095 15.0558 52.2366 14.621 52.2361V52.2361Z" fill="#CFCCE0"/>
<path d="M19.267 59.4783C18.8887 59.4783 18.5188 59.3661 18.2042 59.1559C17.8896 58.9457 17.6444 58.6469 17.4996 58.2974C17.3548 57.9478 17.3169 57.5631 17.3908 57.192C17.4646 56.821 17.6468 56.4801 17.9143 56.2125C18.1819 55.945 18.5227 55.7628 18.8938 55.689C19.2649 55.6152 19.6496 55.653 19.9991 55.7978C20.3487 55.9426 20.6475 56.1878 20.8577 56.5024C21.0679 56.817 21.1801 57.1869 21.1801 57.5653C21.1795 58.0725 20.9778 58.5587 20.6191 58.9174C20.2605 59.276 19.7742 59.4777 19.267 59.4783ZM19.267 55.9255C18.9427 55.9255 18.6257 56.0217 18.3561 56.2019C18.0864 56.382 17.8762 56.6381 17.7521 56.9378C17.628 57.2374 17.5955 57.5671 17.6588 57.8852C17.7221 58.2032 17.8782 58.4954 18.1076 58.7247C18.3369 58.9541 18.6291 59.1102 18.9471 59.1735C19.2652 59.2368 19.5949 59.2043 19.8946 59.0802C20.1942 58.9561 20.4503 58.7459 20.6304 58.4763C20.8106 58.2066 20.9068 57.8896 20.9068 57.5653C20.9063 57.1305 20.7334 56.7137 20.426 56.4063C20.1186 56.0989 19.7018 55.926 19.267 55.9255Z" fill="#CFCCE0"/>
<path d="M13.2547 65.0807C14.2357 65.0807 15.0311 64.2854 15.0311 63.3044C15.0311 62.3233 14.2357 61.528 13.2547 61.528C12.2736 61.528 11.4783 62.3233 11.4783 63.3044C11.4783 64.2854 12.2736 65.0807 13.2547 65.0807Z" fill="#CFCCE0"/>
<path d="M15.441 80.1118C15.441 80.1118 13.6646 75.7392 18.9938 72.4597L15.441 80.1118Z" fill="#CFCCE0"/>
<path d="M13.2563 80.0325C13.2563 80.0325 12.4479 75.3825 6.19055 75.4224L13.2563 80.0325Z" fill="#CFCCE0"/>
<path d="M77.3877 81.7515H47.1515C47.1515 81.7515 46.5387 72.7624 50.1649 72.6602C53.7912 72.5581 53.3826 76.644 57.9283 71.0258C62.4739 65.4076 67.99 65.7141 68.705 69.0339C69.4201 72.3538 67.326 75.0097 71.1566 74.1925C74.9872 73.3753 80.5033 75.5204 77.3877 81.7515Z" fill="#F982C6"/>
<path d="M61.7592 81.7536L61.6572 81.7495C61.8952 75.8312 63.1347 72.0286 64.1326 69.8808C65.2161 67.5487 66.2601 66.6046 66.2706 66.5953L66.3384 66.6717C66.3282 66.6809 65.2963 67.6156 64.2214 69.9319C63.2291 72.0706 61.9963 75.8576 61.7592 81.7536Z" fill="#F2F2F2"/>
<path d="M72.7024 81.7658L72.6044 81.7372C73.7852 77.6843 76.5658 75.1254 76.5938 75.1L76.6624 75.1756C76.6347 75.2008 73.8749 77.7416 72.7024 81.7658Z" fill="#F2F2F2"/>
<path d="M51.9138 81.7586L51.8126 81.7445C52.2132 78.8552 51.4896 76.6135 50.8119 75.2418C50.0782 73.7565 49.241 72.9453 49.2327 72.9373L49.3033 72.8636C49.3118 72.8717 50.162 73.6954 50.9035 75.1966C51.5875 76.5812 52.318 78.8436 51.9138 81.7586Z" fill="#F2F2F2"/>
<path d="M81.4913 81.8882H43.8903L43.8816 81.7609C43.86 81.444 43.3804 73.9699 45.8021 71.3031C46.3435 70.7069 46.9956 70.394 47.7403 70.3731C49.3189 70.3282 50.3109 70.9195 51.111 71.394C52.6192 72.2887 53.6154 72.8798 57.2378 68.4026C61.162 63.5525 65.396 62.509 67.83 63.0892C69.4026 63.4642 70.4865 64.5239 70.8038 65.9967C71.1042 67.3914 71.0085 68.7018 70.9316 69.7547C70.8494 70.8813 70.7844 71.7712 71.2471 72.1744C71.6334 72.5109 72.4043 72.5415 73.6732 72.2707C76.2542 71.7201 79.8555 72.1912 81.6631 74.5268C82.6357 75.7833 83.4018 78.0673 81.5291 81.8127L81.4913 81.8882ZM44.1469 81.6149H81.3221C82.7176 78.7837 82.7612 76.392 81.447 74.694C79.7888 72.5515 76.3099 71.9876 73.7302 72.538C72.3516 72.8322 71.5301 72.7836 71.0676 72.3805C70.5018 71.8875 70.5712 70.9375 70.659 69.7348C70.7347 68.6993 70.8288 67.4106 70.5367 66.0543C70.2425 64.6885 69.2329 63.7046 67.7666 63.3551C65.4103 62.7929 61.2946 63.8232 57.4503 68.5745C53.6794 73.2352 52.5435 72.5615 50.9717 71.6291C50.1617 71.1487 49.242 70.6039 47.7481 70.6462C47.0805 70.665 46.4939 70.9479 46.0044 71.4868C43.8279 73.8836 44.0936 80.6045 44.1469 81.6149Z" fill="#CFCCE0"/>
<path d="M42.2236 87.9006C65.543 87.9006 84.4471 85.637 84.4471 82.8447C84.4471 80.0524 65.543 77.7888 42.2236 77.7888C18.9041 77.7888 0 80.0524 0 82.8447C0 85.637 18.9041 87.9006 42.2236 87.9006Z" fill="#3F3D56"/>
<path d="M43.1521 16.7048C43.1521 16.7048 41.0412 15.9509 39.6842 18.9664C38.3272 21.982 36.2162 25.2991 36.2162 25.2991L37.4225 25.6007C37.4225 25.6007 37.724 23.4898 38.4779 23.1882L38.1764 25.9022C38.1764 25.9022 47.2231 29.0686 51.2941 25.6007L51.1433 24.5452C51.1433 24.5452 51.7464 24.696 51.7464 25.6007L52.1988 25.1484C52.1988 25.1484 51.7464 24.2437 50.3894 23.0375C49.4987 22.2457 49.1927 20.7395 49.0875 19.7978C49.0087 19.0114 48.6941 18.2673 48.1849 17.6629C47.2831 16.6177 45.6399 15.5069 43.1521 16.7048Z" fill="#2F2E41"/>
<path d="M40.9254 28.528L38.7391 25.7951L37.0994 20.1926L43.3851 13.4969C43.3851 13.4969 44.7515 8.30439 43.5217 8.57768C42.2919 8.85097 42.0186 12.6771 42.0186 12.6771L34.0931 18.8261C34.0931 18.8261 34.913 27.4348 37.236 30.441L39.0124 36.0435L40.9254 28.528Z" fill="#FFB9B9"/>
<path d="M46.9379 28.528L49.1242 25.7951L50.7639 20.1926L44.4782 13.4969C44.4782 13.4969 43.1118 8.30439 44.3416 8.57768C45.5714 8.85097 45.8447 12.6771 45.8447 12.6771L53.7702 18.8261C53.7702 18.8261 52.9503 27.4348 50.6273 30.441L48.8509 36.0435L46.9379 28.528Z" fill="#FFB9B9"/>
<path d="M43.9317 26.205C45.8938 26.205 47.4845 24.6144 47.4845 22.6522C47.4845 20.6901 45.8938 19.0994 43.9317 19.0994C41.9695 19.0994 40.3789 20.6901 40.3789 22.6522C40.3789 24.6144 41.9695 26.205 43.9317 26.205Z" fill="#FFB9B9"/>
<path d="M42.2918 24.5653C42.2918 24.5653 42.4285 27.4349 41.6086 28.3914C40.7887 29.3479 39.9689 34.2672 43.9316 34.4038C47.8943 34.5405 47.4844 30.3044 47.4844 30.3044L46.6645 27.9815C46.6645 27.9815 45.4347 26.2051 45.8446 24.5653H42.2918Z" fill="#FFB9B9"/>
<path d="M38.6025 56.4037L41.5403 57.2919C41.5403 57.2919 43.9316 55.8572 43.9316 57.2236C43.9316 58.5901 43.1118 60.3665 43.385 61.5963C43.6583 62.8261 44.2049 65.8323 43.385 65.8323C42.5652 65.8323 40.9254 60.5031 40.9254 60.5031L38.1925 59L38.6025 56.4037Z" fill="#FFB9B9"/>
<path d="M42.2919 75.5342L41.1987 79.7702C41.1987 79.7702 40.2422 81 41.1987 81.5466C41.6476 81.8031 41.9761 82.3304 42.1983 82.8178C42.392 83.2568 42.7162 83.6256 43.1268 83.874C43.5373 84.1223 44.0144 84.2383 44.4932 84.2062C44.9596 84.1674 45.3525 83.9831 45.448 83.5039C45.4745 83.3535 45.4693 83.1993 45.4329 83.051C45.3965 82.9028 45.3296 82.7637 45.2365 82.6428C44.2285 81.2807 44 80.3851 44 80.3851L44.4099 75.6025L42.2919 75.5342Z" fill="#FFB9B9"/>
<path d="M39.646 23.2832C39.646 23.2832 40.8522 21.6246 41.9076 21.3231C42.9631 21.0215 43.1139 19.5137 43.1139 19.5137C43.1139 19.5137 45.8279 22.5293 47.4864 22.6801C49.145 22.8308 47.6372 19.0614 47.6372 19.0614L44.6216 18.3075L41.7569 18.6091L39.4952 20.1168L39.646 23.2832Z" fill="#2F2E41"/>
<path d="M37.3726 46.0187L36.826 47.1118C36.826 47.1118 23.5714 51.3479 24.6645 55.3106C25.7577 59.2733 31.9068 58.1801 31.9068 58.1801L38.7391 59.41L39.4223 56.4038L34.6397 55.1739L42.8384 52.1677L43.1117 66.1056L42.0186 76.0808L44.7515 76.354C44.7515 76.354 47.7577 67.1988 47.3478 63.3727C47.3478 63.3727 52.4037 47.7951 49.5341 45.4721C46.6645 43.1491 37.3726 46.0187 37.3726 46.0187Z" fill="#2F2E41"/>
<path d="M44.0918 30.3063L41.9597 27.7295L40.5155 28.3914L39.0124 33.174C39.0124 33.174 37.7826 35.497 39.2857 37.9566C39.2857 37.9566 39.559 39.5964 39.149 40.0063C38.7391 40.4162 38.6024 43.0125 38.6024 43.0125L36.826 46.4286C36.826 46.4286 46.9378 48.205 49.944 45.7454C49.944 45.7454 48.3666 39.9296 49.3231 38.1532C50.2796 36.3768 50.4163 33.6535 49.3231 32.4237C48.2299 31.1939 47.0745 27.9815 47.0745 27.9815L46.4127 27.5582L44.0918 30.3063Z" fill="#CFCCE0"/>
<path d="M52.0632 9.90472H50.7527V8.59418H50.6336V9.90472H49.3231V10.0238H50.6336V11.3344H50.7527V10.0238H52.0632V9.90472Z" fill="#CFCCE0"/>
<path d="M39.608 7.16455H38.2974V5.854H38.1783V7.16455H36.8678V7.28363H38.1783V8.59418H38.2974V7.28363H39.608V7.16455Z" fill="#CFCCE0"/>
<path d="M45.5864 1.31055H44.276V0H44.1568V1.31055H42.8463V1.42963H44.1568V2.74017H44.276V1.42963H45.5864V1.31055Z" fill="#CFCCE0"/>
</g>
<defs>
<clipPath id="clip0">
<rect width="84.4471" height="92" fill="white"/>
</clipPath>
</defs>
</svg>
